<?xml version="1.0" encoding="UTF-8" standalone="no"?>
<!-- Created with Inkscape (http://www.inkscape.org/) -->

<svg
   xmlns:dc="http://purl.org/dc/elements/1.1/"
   xmlns:cc="http://creativecommons.org/ns#"
   xmlns:rdf="http://www.w3.org/1999/02/22-rdf-syntax-ns#"
   xmlns:svg="http://www.w3.org/2000/svg"
   xmlns="http://www.w3.org/2000/svg"
   xmlns:sodipodi="http://sodipodi.sourceforge.net/DTD/sodipodi-0.dtd"
   xmlns:inkscape="http://www.inkscape.org/namespaces/inkscape"
   width="210mm"
   height="297mm"
   viewBox="0 0 210 297"
   version="1.1"
   id="svg8"
   inkscape:version="0.92.5 (2060ec1f9f, 2020-04-08)"
   sodipodi:docname="drake1.svg">
  <defs
     id="defs2" />
  <sodipodi:namedview
     id="base"
     pagecolor="#ffffff"
     bordercolor="#666666"
     borderopacity="1.0"
     inkscape:pageopacity="0.0"
     inkscape:pageshadow="2"
     inkscape:zoom="0.49497475"
     inkscape:cx="398.65066"
     inkscape:cy="461.70314"
     inkscape:document-units="mm"
     inkscape:current-layer="g986"
     showgrid="false"
     inkscape:window-width="1854"
     inkscape:window-height="1016"
     inkscape:window-x="66"
     inkscape:window-y="27"
     inkscape:window-maximized="1" />
  <metadata
     id="metadata5">
    <rdf:RDF>
      <cc:Work
         rdf:about="">
        <dc:format>image/svg+xml</dc:format>
        <dc:type
           rdf:resource="http://purl.org/dc/dcmitype/StillImage" />
        <dc:title></dc:title>
      </cc:Work>
    </rdf:RDF>
  </metadata>
  <g
     inkscape:label="Layer 1"
     inkscape:groupmode="layer"
     id="layer1">
    <g
       id="g880"
       transform="matrix(-0.93028795,0,0,1,190.79252,-1.9704668)">
      <g
         id="g986"
         transform="translate(179.27372,-38.486812)">
        <path
           style="fill:#f8ad08;stroke-width:0.47431815"
           d="m 65.572721,384.65446 c -0.06899,-0.16513 -1.074919,-3.27771 -2.235359,-6.91699 -3.521037,-11.04253 -9.814935,-25.33072 -15.961705,-36.2358 -1.433826,-2.54417 -2.464999,-4.58437 -2.291088,-4.53397 1.151933,0.33389 14.198698,18.769 17.896654,25.28806 1.19924,2.11404 2.466762,3.99691 2.816763,4.18414 2.132997,1.14088 -14.107747,-29.2823 -20.996865,-39.33269 -6.19766,-9.04162 -12.957625,-17.50248 -19.091529,-23.89519 -6.047126,-6.30228 -15.9812339,-15.03521 -17.9421059,-15.77265 -0.498539,-0.1875 -2.432213,-1.57215 -4.297042,-3.07702 -3.343549,-2.69817 -14.5783341,-10.44851 -14.9107301,-10.2862 -0.09403,0.0458 0.979322,1.09123 2.3852141,2.32288 2.388965,2.09292 5.955229,6.00478 5.622431,6.16728 -0.08169,0.0399 -2.232668,-1.39129 -4.779982,-3.18042 -6.2062111,-4.35897 -13.6569541,-8.07538 -20.1885301,-10.06993 l -5.37579,-1.6416 4.19821,2.08346 c 9.894613,4.91042 18.297834,10.29058 24.4235341,15.63717 4.454122,3.88761 4.389002,3.816 3.423009,3.76415 -0.546432,-0.0294 -0.522757,0.0436 0.09996,0.3082 2.27,0.96441 11.6524789,10.67991 17.7817059,18.41286 7.548949,9.52414 16.396614,25.19132 22.413866,39.68981 2.003115,4.82648 8.974624,22.65839 9.311017,23.816 0.136944,0.47143 0.320417,0.61435 0.407666,0.31761 0.174932,-0.5949 -1.993512,-10.33372 -3.413176,-15.32899 -1.980544,-6.96887 -3.852173,-12.4054 -6.243362,-18.13516 -1.37925,-3.30496 -2.654411,-6.63488 -2.833705,-7.39985 -0.548187,-2.33886 7.964903,12.98955 18.800844,33.85219 5.567459,10.71914 10.34381,19.66334 10.614118,19.87606 0.270307,0.21267 0.435002,0.25167 0.365977,0.0867 z M 2.3272261,232.62226 c -0.737919,-3.55118 -3.319445,-10.30594 -5.246812,-13.72866 -0.90994,-1.61596 -1.539503,-2.99418 -1.399048,-3.06278 1.350822,-0.65959 9.663644,1.95502 10.407531,3.27346 0.571685,1.01323 1.082194,-0.45071 0.960147,-2.75329 -0.160217,-3.02262 -0.956249,-5.70449 -3.080758,-10.37927 -0.819112,-1.80236 -1.323642,-3.35791 -1.121187,-3.45677 0.781115,-0.38141 6.755505,1.82384 10.1220979,3.73628 4.262427,2.4213 4.282355,2.24151 0.570594,-5.14614 -3.7783999,-7.52026 -7.4749559,-11.23964 -18.3880609,-18.50153 -4.080818,-2.71549 -7.3836341,-5.0449 -7.3395731,-5.17646 0.04403,-0.13158 1.73607,-0.37139 3.7600301,-0.53294 7.367166,-0.58809 17.327694,0.43163 27.3220699,2.79715 l 4.626619,1.09507 -1.223916,-1.4649 c -2.210275,-2.64546 -10.038721,-9.30991 -15.1672269,-12.91202 -6.884854,-4.83572 -15.512833,-9.1399 -21.1661621,-10.55899 l -4.565648,-1.14607 0.961676,-2.00335 c 5.706621,-11.88811 20.1123291,-27.8743 32.681894,-36.26752 4.550631,-3.03866 4.726653,-3.35061 1.41038,-2.49941 -7.7501849,1.98924 -18.8946499,6.23766 -33.356643,12.71598 -4.383594,1.96355 -8.104504,3.53126 -8.268766,3.48366 -0.550565,-0.15959 0.833646,-3.76753 3.012838,-7.85294 5.072534,-9.5097 18.0462091,-27.713739 30.5255121,-42.831961 2.1886959,-2.651515 2.3267369,-2.958722 1.231144,-2.739769 -0.678673,0.135647 -5.278127,2.198214 -10.221009,4.58347 -11.7356911,5.663323 -18.1367171,9.975269 -24.3375881,16.394949 -5.338294,5.526671 -6.304534,7.038171 -8.241804,12.892771 l -1.8478,5.58427 2.14094,-2.11164 c 1.17753,-1.16137 3.63254,-3.18046 5.455576,-4.48683 3.867521,-2.77143 11.54703,-6.6741 11.483657,-5.8359 -0.02274,0.30163 -0.883134,1.64537 -1.911875,2.986 -8.235692,10.73282 -16.203258,25.6518 -18.332088,34.32623 -0.57982,2.36259 -0.28047,2.66723 1.6765,1.70622 2.92466,-1.43591 13.00606,-5.13162 13.054274,-4.78513 0.02823,0.20284 -2.025278,4.66166 -4.563332,9.90848 -8.285922,17.12913 -9.857122,23.39183 -7.092642,28.2706 2.2083,3.89728 6.430874,6.37762 20.572869,12.08468 4.8681771,1.96459 8.8363541,3.76891 8.8181491,4.00959 -0.01819,0.24071 -2.570654,1.82593 -5.672139,3.52274 -3.1014691,1.69682 -6.6538411,3.94429 -7.8941441,4.99443 -8.711453,7.37574 -12.470805,12.50025 -18.836465,25.67659 -3.5844,7.41935 -6.05198,10.67054 -9.35329,12.32345 -1.34292,0.67332 -3.09044,1.35264 -3.88247,1.51113 -1.41561,0.28334 -1.42241,0.30857 -0.40086,1.48742 2.16411,2.49739 6.00581,5.76231 9.62128,8.1768 3.69063,2.46468 3.76879,2.48959 5.18259,1.65187 5.87114,-3.47895 19.465083,-10.17282 22.756108,-11.20547 3.4665711,-1.08776 3.7429861,-1.24378 3.8961291,-2.1993 0.283769,-1.77052 -0.514986,-6.32468 -1.521999,-8.67779 -0.5310471,-1.24093 -0.8607171,-2.42122 -0.7325911,-2.62284 0.583731,-0.91867 8.8573671,4.16429 11.3801341,6.99144 1.626245,1.82247 2.09378,1.44328 1.535167,-1.24505 z M -74.341783,211.48734 c -0.28715,-0.4617 -0.44448,-0.50729 -0.40116,-0.11636 0.0392,0.35384 0.25181,0.69564 0.47241,0.75962 0.22063,0.0639 0.18861,-0.22547 -0.0713,-0.64333 z m -2.50743,-5.19105 c -0.81707,-1.44814 -1.23036,-2.00199 -0.91841,-1.23075 0.31195,0.77125 0.98045,1.95608 1.48559,2.633 0.50513,0.6769 0.24991,0.0459 -0.56718,-1.40225 z m -20.81836,0.34865 c 0.15407,-0.92773 0.61559,-1.85418 1.0256,-2.05873 0.52929,-0.26431 0.53694,-0.38795 0.026,-0.42726 -0.86792,-0.0667 0.29428,-3.70024 2.6479,-8.27845 1.07113,-2.08347 1.7394,-4.51789 2.09619,-7.63599 l 0.52377,-4.57743 2.32522,-1.75397 c 1.27886,-0.9647 3.86761,-2.56398 5.75278,-3.55398 2.52969,-1.3286 4.31795,-2.67144 6.8268,-5.12676 l 3.39927,-3.32668 1.10308,1.35646 1.10309,1.35649 -0.78245,-1.52647 c -0.71333,-1.39162 -0.60956,-1.86617 1.17449,-5.37095 2.01158,-3.95179 2.80319,-7.77531 2.10272,-10.15618 -0.58384,-1.98449 -1.00637,-1.80546 -1.15351,0.48886 -0.12593,1.96268 -0.1542,1.99766 -0.94813,1.1737 l -0.81831,-0.84927 -0.151,1.4485 c -0.0831,0.79668 -0.35253,1.49024 -0.59882,1.54125 -0.24634,0.051 -0.63802,1.46443 -0.8705,3.14089 -0.81103,5.84865 -5.61765,10.57962 -19.79126,19.47967 -7.08767,4.45061 -11.513087,7.42443 -12.889067,8.66126 -1.76748,1.58877 5.31628,18.8049 7.332417,17.82043 0.15601,-0.0763 0.4097,-0.89758 0.56378,-1.82532 z m 30.10944,-17.58713 c -0.28714,-0.46166 -0.44448,-0.50728 -0.40116,-0.11619 0.0392,0.35382 0.25181,0.69566 0.47243,0.75962 0.22062,0.0639 0.18859,-0.22547 -0.0713,-0.64334 z m -23.59885,11.96842 c -0.82353,0.28789 -2.19591,0.95627 -3.04975,1.48529 -0.85392,0.52885 -0.18018,0.29321 1.49724,-0.52359 1.67728,-0.81704 2.3761,-1.24946 1.55263,-0.96147 z m 21.91153,-15.62237 0.31524,-1.31647 -0.54433,1.25008 c -0.51153,1.17473 -0.58485,1.62636 -0.23639,1.45622 0.0826,-0.0403 0.2921,-0.66578 0.46548,-1.38983 z m -18.64823,-0.96609 c 1.47487,-1.98789 2.72903,-3.75173 2.78704,-3.91962 0.14647,-0.42396 -3.74752,2.23817 -4.66224,3.18737 -0.69672,0.72295 -1.53061,4.19984 -1.03155,4.30098 0.12384,0.0251 1.4319,-1.58084 2.90675,-3.56873 z m 15.6465,-32.31476 c -0.18856,-0.33417 -0.53878,-0.51194 -0.77827,-0.39501 -0.23948,0.11689 -0.28115,0.48607 -0.0926,0.82025 0.18856,0.3342 0.53877,0.51193 0.77825,0.395 0.23949,-0.11689 0.28117,-0.48605 0.0926,-0.82024 z m 1.27643,-2.6595 c -0.63723,-1.1294 -1.71199,-1.36871 -2.01977,-0.44972 -0.13943,0.41633 0.11266,0.82349 0.76471,1.23493 1.30801,0.82543 1.94054,0.4297 1.25504,-0.78526 z m 1.44918,-2.10723 c 0.37388,-1.11657 -0.53905,-2.46614 -1.88678,-2.78922 -2.3097,-0.55371 -1.98496,2.11353 0.37232,3.05814 1.0048,0.40266 1.3076,0.34888 1.51446,-0.26892 z"
           id="path992"
           inkscape:connector-curvature="0" />
        <path
           style="fill:#fa6a05;stroke-width:0.47431815"
           d="m 7.3706151,286.84967 c -0.445024,-0.35106 -1.043561,-1.08256 -1.330094,-1.6256 -0.286518,-0.54305 -0.541035,-0.72186 -0.565578,-0.3974 -0.02454,0.32449 -1.11894,-0.28225 -2.432004,-1.34828 -1.313078,-1.06603 -2.424099,-1.82873 -2.468934,-1.69483 -0.109486,0.32687 6.113816,5.26161 6.947592,5.50906 0.433694,0.12865 0.382183,-0.0225 -0.150984,-0.44294 z m -8.572693,2.09347 c -0.137618,-0.20277 -0.87617,-0.87678 -1.641188,-1.49782 l -1.390938,-1.12919 0.871881,1.27485 c 0.479539,0.70115 1.218074,1.37517 1.641187,1.49782 0.423129,0.12259 0.656701,0.057 0.519058,-0.14559 z m -3.544476,-8.18947 c -1.932184,-2.28483 -5.245244,-5.48488 -5.3511681,-5.16863 -0.04599,0.13728 0.7031941,0.99595 1.6648551,1.90811 2.868298,2.72064 2.454493,2.69294 -1.9921271,-0.13349 -6.379578,-4.05497 -11.717554,-6.49298 -19.441099,-8.87923 -3.84697,-1.18854 -7.03706,-2.03394 -7.08907,-1.87864 -0.052,0.15527 1.37514,0.91583 3.17145,1.69007 1.79631,0.77425 4.95255,2.26984 7.013866,3.32358 2.061313,1.05371 3.839601,1.87102 3.951756,1.81626 0.241265,-0.11774 -1.358791,-0.98323 -5.957962,-3.22257 -1.8556,-0.90348 -3.33469,-1.75945 -3.28689,-1.90219 0.0478,-0.14264 2.15153,0.42105 4.67497,1.25285 5.993414,1.97558 13.406625,5.77434 19.1753501,9.82605 2.547314,1.78913 4.699747,3.21961 4.783207,3.17885 0.08346,-0.0408 -0.509256,-0.85572 -1.317138,-1.81107 z m -2.029747,3.18701 c -0.125705,-0.2228 -0.572759,-0.58575 -0.993478,-0.80659 -0.420708,-0.22083 -0.662071,-0.21923 -0.536368,0.003 0.125704,0.2228 0.572767,0.58577 0.993476,0.80659 0.42071,0.22084 0.662072,0.21923 0.53637,-0.003 z m 5.910911,-3.28411 c -0.39421,-0.82923 -13.7188811,-9.17862 -14.2410851,-8.92363 -0.170263,0.0832 3.905653,3.40383 4.328747,3.52668 0.152055,0.0441 0.140937,-0.18286 -0.02481,-0.50457 -0.16568,-0.32169 2.0368861,0.94723 4.8946711,2.81977 2.857785,1.87254 5.126905,3.25934 5.04248,3.08175 z m -7.838244,1.83669 c -0.208715,-0.41823 -4.0074351,-3.1465 -4.2298641,-3.03788 -0.11175,0.0546 0.441585,0.59597 1.229656,1.20306 1.651094,1.27202 3.1885261,2.21224 3.0002081,1.83482 z m -9.5588621,-6.63588 c -0.748642,-0.48696 -1.459142,-0.83754 -1.578884,-0.77907 -0.119739,0.0584 0.394819,0.50472 1.143453,0.99168 0.748648,0.48698 1.459137,0.83755 1.578881,0.77908 0.11974,-0.0584 -0.394794,-0.50472 -1.14345,-0.99169 z m -2.895325,-1.68628 c -0.507746,-0.32042 -1.021144,-0.53474 -1.140888,-0.47626 -0.119738,0.0584 0.197732,0.36844 0.705456,0.68886 0.507752,0.32044 1.021153,0.53474 1.140897,0.47628 0.119738,-0.0584 -0.197732,-0.36845 -0.705465,-0.68888 z m -11.705602,-23.20742 c 0.61989,-0.52552 1.98264,-1.43246 3.02835,-2.01538 1.28404,-0.71584 1.51281,-0.94948 0.70466,-0.7198 -0.65815,0.18701 -2.43436,1.23244 -3.94719,2.32306 -2.49295,1.79724 -2.82946,1.93844 -3.59265,1.50743 -1.80078,-1.017 -2.6825,-1.19944 -1.14669,-0.23729 1.73865,1.08923 2.89238,0.88938 4.95352,-0.85802 z m -7.15334,-0.80267 c -0.38891,-0.31964 -0.75924,-0.42558 -0.82293,-0.23538 -0.0637,0.19023 0.2545,0.4517 0.70712,0.58118 0.65409,0.18709 0.67785,0.1162 0.1158,-0.3458 z m -1.29088,-0.83114 c -0.0676,-0.14368 -1.16896,-1.00093 -2.44751,-1.90496 -1.27856,-0.90404 -1.94158,-1.24949 -1.47339,-0.76768 0.88894,0.9148 4.13467,3.12722 3.9209,2.67264 z m -23.66501,5.41831 c -0.31426,-0.55697 -0.54165,-0.73659 -0.50532,-0.39911 0.0363,0.33747 0.29346,0.79318 0.57138,1.0127 0.27792,0.2195 0.24822,-0.0565 -0.066,-0.61359 z m 18.50253,-9.5514 c -0.18855,-0.33418 -0.71692,-0.88995 -1.17416,-1.23503 -0.524,-0.39548 -0.70458,-0.40279 -0.4885,-0.0199 0.18856,0.3342 0.71693,0.88996 1.17417,1.23505 0.52399,0.39548 0.70458,0.4028 0.48849,0.0197 z m -19.74424,7.27296 c -0.28715,-0.46171 -0.44448,-0.5073 -0.40116,-0.11638 0.0392,0.35385 0.2518,0.69567 0.47241,0.75963 0.22063,0.0639 0.18852,-0.22561 -0.0713,-0.64332 z m 17.16702,-9.93264 c -0.28715,-0.4617 -0.44448,-0.5073 -0.40116,-0.11637 0.0392,0.35384 0.25181,0.69566 0.47242,0.75962 0.22063,0.064 0.1886,-0.22547 -0.0713,-0.64332 z m -1.28433,-1.65487 c -0.12615,-0.50675 -0.40697,-0.83465 -0.62404,-0.72865 -0.21706,0.10599 -0.18896,0.5573 0.0625,1.00288 0.25141,0.44557 0.53223,0.77345 0.62404,0.72862 0.0918,-0.0448 0.0637,-0.49611 -0.0625,-1.00285 z m 5.27516,-2.42373 c -0.59335,0.16651 -1.4751,0.59707 -1.95944,0.95679 -0.48434,0.35973 8.7e-4,0.22338 1.07877,-0.30285 1.07769,-0.52622 1.47399,-0.8205 0.88067,-0.65394 z m 4.4567,-3.91345 c 0.64922,-0.87958 1.12935,-1.68975 1.06694,-1.80034 -0.10183,-0.18048 -2.69747,2.9942 -2.93019,3.58387 -0.26305,0.66653 0.8202,-0.37042 1.86325,-1.78353 z m -27.19944,8.24152 c 0.0846,-2.22301 0.40676,-6.72299 0.71609,-9.99993 1.14529,-12.13247 0.4502,-20.46004 -2.23758,-26.808 l -1.26899,-2.99709 1.46106,1.09493 c 1.60782,1.20491 5.41124,7.49259 6.39376,10.56991 0.76004,2.38055 0.92706,1.66039 0.39664,-1.7101 -0.78776,-5.00545 -2.60445,-9.71598 -6.17344,-16.00705 -1.86208,-3.28228 -3.23277,-6.04244 -3.046,-6.13363 0.76317,-0.37267 5.4131,2.53701 7.18868,4.4983 0.3568,0.39411 -0.0177,-0.51596 -0.83224,-2.02243 -0.81453,-1.50644 -2.1992,-3.54097 -3.07704,-4.52117 -1.55647,-1.73797 -1.58414,-1.84739 -1.11519,-4.41011 0.56583,-3.09229 -0.2541,-7.81831 -2.04549,-11.79015 l -1.27972,-2.83736 -2.14353,1.99967 c -1.17895,1.09983 -2.77924,2.64485 -3.5562,3.43337 -0.77696,0.78855 -3.04974,2.28441 -5.0506,3.32418 -4.29752,2.23319 -5.05503,3.03786 -1.02303,1.08673 l 2.7992,-1.35514 -2.03107,2.25507 c -1.11709,1.24029 -2.17115,2.21448 -2.34235,2.16485 -0.17117,-0.0496 -0.05,-0.21778 0.26933,-0.3737 0.3193,-0.15597 0.42416,-0.32877 0.23294,-0.38424 -0.52827,-0.1532 -1.54312,1.07332 -1.09298,1.32086 0.53143,0.29223 -0.55267,1.3929 -1.32231,1.34256 -0.3898,-0.0256 -0.37327,0.092 0.0454,0.32229 0.47599,0.26175 0.42191,0.3884 -0.19464,0.45578 -0.46954,0.0514 -0.874,0.36155 -0.89882,0.68927 -0.0289,0.38221 0.11454,0.38297 0.39997,0.002 0.24477,-0.32659 0.22271,-0.11465 -0.0485,0.47193 -0.27144,0.58616 -0.80679,1.09996 -1.18964,1.14182 -0.38285,0.0418 -0.48428,0.19253 -0.22533,0.33496 0.51435,0.28284 -1.14638,2.77768 -1.73538,2.60697 -0.19928,-0.0577 -0.36633,0.35541 -0.37121,0.91816 -0.005,0.56275 -0.818,2.59043 -1.80696,4.50594 -0.98898,1.91551 -2.14796,4.58489 -2.57551,5.93198 l -0.77736,2.44925 3.10996,-1.80923 c 8.13597,-4.73308 14.55405,-2.82782 18.31133,5.43589 2.78615,6.12783 3.78116,10.61611 6.02034,27.15625 0.8617,6.36512 1.6558,11.59878 1.76464,11.63031 0.10888,0.0316 0.26706,-1.76145 0.35158,-3.98446 z m 31.63327,-16.37902 c 1.55116,-3.20615 3.92789,-7.6787 5.28163,-9.93896 3.628883,-6.059 3.627882,-6.05708 2.38748,-4.52289 -2.01511,2.49245 -8.83979,15.18259 -10.56082,19.63732 -0.8831,2.28582 0.3471,0.084 2.89171,-5.17547 z m 10.758275,-17.84597 c 0.597338,-0.83619 0.890118,-1.42468 0.650631,-1.30775 -0.239487,0.11689 -0.924156,0.8968 -1.521492,1.733 -0.597338,0.83618 -0.890125,1.42466 -0.650641,1.30772 0.239489,-0.11689 0.924165,-0.89677 1.521502,-1.73297 z m 2.101912,-2.28842 c 0.05039,-0.15044 1.494464,-1.54068 3.209101,-3.08953 1.714642,-1.54886 2.77927,-2.66331 2.365845,-2.47653 -0.87791,0.39644 -6.650591,5.73595 -6.496571,6.00894 0.133623,0.23681 0.80147,-0.0842 0.921919,-0.44237 z m 7.316397,-6.79688 c -0.380321,0.0365 -0.747761,0.23429 -0.816527,0.43952 -0.06876,0.20523 0.242461,0.17541 0.691542,-0.0664 0.496285,-0.26715 0.545298,-0.41351 0.124996,-0.3732 z m 3.498404,-2.22815 c -0.476545,0.10288 -1.16235,0.4377 -1.524008,0.74417 -0.361574,0.3066 0.02832,0.22246 0.866526,-0.18683 0.838205,-0.40931 1.134028,-0.66018 0.657482,-0.55734 z m 8.7354141,-4.93978 c 0.03638,-0.48107 -14.2289691,-6.48854 -14.7748011,-6.22202 -0.125756,0.0614 0.239839,0.28976 0.812425,0.50749 4.547817,1.72916 13.5085401,5.39894 13.6063841,5.57236 0.06677,0.11827 -1.657193,1.16026 -3.830969,2.31547 l -3.9523291,2.10039 4.0494651,-1.87012 c 2.31359,-1.0684 4.066744,-2.09886 4.089809,-2.4036 z m -49.5251121,19.27163 c -0.50772,-0.88878 -0.77561,-1.16214 -0.59546,-0.60742 0.18014,0.55474 0.5955,1.28194 0.92293,1.61605 0.3275,0.33408 0.18013,-0.11982 -0.32753,-1.00861 z m 31.290761,-27.29193 c -1.740644,-0.78405 -4.656942,-2.39512 -6.480661,-3.58014 -1.82374,-1.18503 -3.19032,-1.93206 -3.03687,-1.66009 0.64587,1.14471 11.695116,7.14781 12.46461,6.77206 0.119739,-0.0584 -1.206443,-0.7478 -2.947079,-1.53183 z m -11.273731,-8.05788 c -0.69138,-1.22536 -1.05584,-1.68677 -0.80992,-1.02539 0.24591,0.6614 0.81158,1.66398 1.25704,2.22792 0.44544,0.56398 0.24428,0.0228 -0.44712,-1.20253 z m -67.594077,29.6045 c -0.28716,-0.46169 -0.44449,-0.50729 -0.40117,-0.11636 0.0392,0.35384 0.25181,0.69565 0.47242,0.75962 0.22062,0.0639 0.18861,-0.22548 -0.0713,-0.64332 z m 66.372737,-33.78739 c -0.20343,-1.41883 -0.24385,-1.46394 -0.4214,-0.4705 -0.16992,0.9507 0.16115,2.27679 0.52416,2.09954 0.0673,-0.0328 0.021,-0.76592 -0.10276,-1.62904 z m 0.32509,-4.03385 c 0.30971,-1.57842 0.27909,-1.80313 -0.11628,-0.85318 -0.47267,1.13573 -0.7649,3.22106 -0.42835,3.05666 0.0683,-0.0334 0.31337,-1.02491 0.54463,-2.20348 z m -69.076157,32.82548 c -0.63204,-1.11224 -0.94634,-1.4787 -0.69901,-0.8141 0.24733,0.66462 0.76423,1.57474 1.14873,2.02248 0.38447,0.44775 0.18179,-0.0967 -0.44969,-1.2084 z m 71.119507,-39.68726 1.60661,-4.45268 -1.83824,4.37078 c -1.67309,3.97808 -1.94938,4.81504 -1.52034,4.60554 0.0799,-0.039 0.86834,-2.07467 1.75197,-4.52364 z m -72.570977,36.00426 c -0.31426,-0.55699 -0.54165,-0.73658 -0.50532,-0.39911 0.0363,0.33748 0.29346,0.79318 0.57138,1.01268 0.27793,0.21954 0.24822,-0.0565 -0.066,-0.61357 z m 13.039997,-8.21908 c -0.0791,-0.62679 0.0373,-0.7078 0.62346,-0.43352 0.54932,0.25702 0.57512,0.20345 0.10843,-0.22517 -0.35768,-0.32854 -0.38386,-0.80429 -0.0629,-1.14396 0.30219,-0.3198 0.3876,-0.62842 0.18985,-0.68575 -0.58719,-0.17014 0.4321,-2.82303 1.12617,-2.931 0.35102,-0.0546 0.54256,-0.26882 0.42481,-0.47754 -0.11737,-0.20802 0.46897,-0.60843 1.303,-0.88977 1.18117,-0.39846 1.34371,-0.56648 0.73497,-0.76048 -0.52144,-0.16616 -1.31915,0.13192 -2.39743,0.89558 -1.32885,0.94119 -1.6868,1.60749 -2.01455,3.75003 -0.48825,3.19171 -0.52781,3.9603 -0.19544,3.79801 0.14138,-0.069 0.21327,-0.47241 0.15974,-0.89635 z m -13.925237,4.69005 c -0.28373,-1.16932 -0.63365,-2.16018 -0.77759,-2.2019 -0.14398,-0.0418 -0.043,0.87697 0.22428,2.04153 0.2673,1.16455 0.61722,2.15541 0.7776,2.2019 0.16038,0.0466 0.0594,-0.87222 -0.22429,-2.04153 z m 79.819897,-46.21515 c 2.374324,-4.99561 4.288554,-9.28092 4.253848,-9.5229 -0.03471,-0.24196 -0.705988,-0.10287 -1.491748,0.30917 -1.268867,0.66528 -1.292591,0.72198 -0.212158,0.50666 1.388388,-0.27667 1.806114,-1.38968 -4.145884,11.04637 -1.717378,3.58831 -3.071988,6.61374 -3.010238,6.72319 0.16847,0.2986 -0.008,0.64504 4.60618,-9.06249 z m -0.944124,-7.82557 c -0.710937,0.22881 -1.788626,0.75504 -2.394876,1.1694 -0.60624,0.41437 -0.0245,0.22723 1.29266,-0.41594 1.317177,-0.64318 1.813178,-0.98223 1.102216,-0.75346 z m -5.245746,2.04042 c -0.8335,0.29199 -2.00813,0.86789 -2.60999,1.28032 -0.60213,0.41197 0.0798,0.17299 1.51543,-0.53091 1.43519,-0.70471 1.92829,-1.04098 1.09482,-0.74894 z m -4.38966,1.64954 c -0.24862,-0.0721 -0.22604,-0.95493 0.0501,-1.962 l 0.50203,-1.83098 -0.74387,1.88076 c -0.77463,1.95851 -0.72988,2.71395 0.13572,2.29129 0.2794,-0.13642 0.30457,-0.30709 0.056,-0.37907 z m 0.83582,-5.35237 0.31524,-1.31648 -0.54433,1.25006 c -0.51153,1.17474 -0.58484,1.62638 -0.23639,1.45622 0.0826,-0.0403 0.29209,-0.66576 0.46548,-1.3898 z m 2.48441,-5.83899 c 0.99251,-2.70519 1.14766,-3.40301 0.39249,-1.76526 -1.19769,2.59741 -2.58744,6.58559 -2.21322,6.35122 0.0986,-0.0619 0.91799,-2.12546 1.82073,-4.58596 z m 4.12946,-8.43085 c 1.10033,-2.11033 3.353573,-5.8686 5.007219,-8.35172 3.879157,-5.82496 4.367116,-6.75636 1.60443,-3.06254 -2.277055,3.04451 -6.996709,10.89704 -8.307679,13.82225 -1.27702,2.84945 -0.38454,1.58231 1.69603,-2.40799 z m 9.710853,-15.27278 c 0.259317,-0.42757 0.223197,-0.61301 -0.09048,-0.46459 -0.286954,0.13626 -0.540349,0.48845 -0.562663,0.78352 -0.05033,0.66604 0.100391,0.59246 0.653155,-0.31895 z m -14.804663,7.22906 c 0.37686,-0.62135 0.34947,-0.67249 -0.21602,-0.40327 -0.35596,0.16996 0.16037,-2.23691 1.14785,-5.34768 l 1.79543,-5.65598 -2.18166,6.22239 c -1.19992,3.42232 -2.15403,6.27139 -2.12024,6.33127 0.14562,0.2581 1.17896,-0.49445 1.57459,-1.1467 z m 16.804265,-9.77351 c 2.043619,-2.76995 1.546523,-2.8104 -3.420645,-0.27835 l -4.662363,2.37661 4.481462,-1.90083 c 4.318138,-1.83157 4.441038,-1.85512 3.37242,-0.6462 -0.609975,0.69008 -1.124911,1.46466 -1.144311,1.72131 -0.047,0.62161 0.02547,0.55447 1.373402,-1.27259 z m -14.884095,8.02774 c 0.0642,-0.19167 1.65109,-1.55033 3.52643,-3.01929 2.409445,-1.88729 2.779848,-2.28129 1.262607,-1.343 -2.212287,1.36809 -6.887677,5.53498 -5.618007,5.00696 0.39172,-0.16288 0.76474,-0.45309 0.82897,-0.64467 z m -17.81994,3.9553 c 0.17913,-0.90694 0.15564,-0.91376 -0.25069,-0.0726 -0.42675,0.88333 -0.46973,1.3286 -0.11136,1.15362 0.0904,-0.0441 0.25334,-0.53058 0.36204,-1.08097 z"
           id="path990"
           inkscape:connector-curvature="0" />
        <path
           style="fill:#e6012c;stroke-width:0.47431815"
           d="m 5.7853311,285.0027 c -0.490776,-0.59214 -3.040201,-3.74793 -5.66537,-7.01282 -9.967714,-12.39677 -19.1625861,-22.2795 -26.0826631,-28.03389 -2.042951,-1.69881 -2.283971,-1.77407 -3.609241,-1.12695 -0.78106,0.38139 -2.42456,1.45147 -3.65222,2.37796 -1.83729,1.38657 -2.39403,1.63557 -3.14752,1.40767 -1.76843,-0.53477 -8.19342,-5.18854 -11.25266,-8.15056 -3.72944,-3.61089 -4.10841,-4.18073 -2.84072,-4.27137 0.51384,-0.0369 2.19876,-0.57561 3.74425,-1.19753 2.45088,-0.98622 3.08877,-1.47192 4.99089,-3.80092 1.19947,-1.46861 3.64752,-5.67534 5.44009,-9.3483 5.37312,-11.00948 8.2378,-15.37471 13.768796,-20.98098 3.338462,-3.38387 10.64583,-8.59493 15.1077121,-10.77366 1.8921,-0.92391 3.3817,-1.78348 3.310252,-1.91011 -0.07145,-0.12656 -2.809337,-1.28918 -6.0841621,-2.5834 -9.336286,-3.68973 -14.612807,-6.09264 -18.167068,-8.27325 -2.99155,-1.83536 -3.43435,-2.28326 -4.99513,-5.05271 -1.48917,-2.6423 -1.69216,-3.38189 -1.55588,-5.66804 0.22232,-3.72982 2.49926,-10.14438 6.88354,-19.39214 2.084535,-4.39694 4.292691,-9.0587 4.907001,-10.35953 1.093514,-2.31551 1.091365,-2.35972 -0.102431,-2.10901 -0.670672,0.14075 -3.538047,1.22203 -6.372,2.40266 -5.57737,2.32351 -7.25679,2.84689 -7.53767,2.34907 -0.41638,-0.73798 3.88225,-12.13964 6.56676,-17.41765 3.339825,-6.56642 6.260015,-11.27664 10.828656,-17.46639 l 3.229278,-4.37516 -3.818061,1.71418 c -4.121963,1.85066 -8.901563,5.13998 -12.543313,8.63214 -1.24154,1.19056 -2.37952,2.12923 -2.52885,2.08593 -0.52741,-0.15285 4.61551,-13.79733 7.70583,-20.443996 4.23936,-9.118024 7.569748,-15.310286 17.477315,-32.495936 4.6313521,-8.033528 8.5199821,-14.873291 8.6414151,-15.199483 0.393307,-1.056565 -6.72899,6.784191 -14.9029531,16.40627 -18.590437,21.883949 -29.275997,39.974955 -36.655457,62.058925 -4.47139,13.38119 -6.61995,24.45112 -7.39658,38.10904 -0.32286,5.6778 -0.26524,6.11584 1.24535,9.4671 4.74238,10.52109 10.53109,27.60954 11.80823,34.85818 0.68203,3.87106 0.39512,9.19622 -0.51953,9.64284 -0.63978,0.31241 -4.61303,-5.5571 -8.91299,-13.1668 -2.35817,-4.17364 -7.30694,-10.74565 -9.27132,-12.31294 -1.57064,-1.25312 -4.95035,-3.00786 -5.38474,-2.79576 -0.18678,0.0913 1.18392,2.85135 3.046,6.13365 3.56905,6.29103 5.38568,11.00159 6.17344,16.00705 0.53042,3.37048 0.3634,4.09064 -0.39665,1.71011 -0.98252,-3.07732 -4.78594,-9.36501 -6.39375,-10.56992 l -1.46108,-1.09495 1.269,2.99711 c 2.68934,6.35162 3.38451,14.69354 2.23419,26.80967 -1.02793,10.82689 -0.99696,15.19485 0.12819,18.08524 1.46906,3.77388 4.97669,8.52818 8.69723,11.78837 5.57095,4.88164 10.68841,7.36724 30.750974,14.93598 9.459382,3.56862 18.8874411,7.64642 22.4362941,9.70408 1.190848,0.69046 2.206033,1.13338 2.255974,0.98428 0.189388,-0.56546 -6.001225,-5.65889 -11.0942301,-9.12795 -5.375828,-3.66169 -13.794132,-8.271 -19.824812,-10.85475 -1.82202,-0.78062 -3.2702,-1.54636 -3.21818,-1.70166 0.052,-0.15527 3.2421,0.69009 7.08906,1.87863 7.723552,2.38628 13.061528,4.82426 19.441106,8.87924 2.3224341,1.47619 4.1069711,2.47053 3.9656361,2.20963 -0.345123,-0.63694 -4.0496271,-4.01619 -6.6735801,-6.08753 -7.059494,-5.57273 6.8172791,2.9134 15.1739281,9.27938 4.653199,3.54476 4.99318,3.74827 3.744341,2.2415 z M -102.56878,202.75433 c -1.34444,-2.40946 -3.15345,-7.30843 -3.83123,-10.37523 -0.22304,-1.00923 -0.30002,-1.02482 -0.91239,-0.18502 -1.32332,1.81482 -0.86836,3.8176 1.85411,8.16204 3.01812,4.81621 5.29154,6.70309 2.88951,2.39821 z m 13.780227,-15.95723 c 2.96261,-4.42233 2.81628,-4.86572 -0.18961,-0.57456 -1.69057,2.41346 -2.05091,2.73965 -2.16878,1.96321 -0.10583,-0.69719 -0.21561,-0.57032 -0.43688,0.50486 -0.25699,1.24876 -0.19496,2.18755 0.13153,1.99059 0.0573,-0.0339 1.25566,-1.78223 2.66375,-3.8841 z m 5.24304,-6.46516 1.85603,-2.12442 -3.02495,1.52922 c -2.28146,1.15328 -2.6139,1.41091 -1.35277,1.04767 l 1.67219,-0.48154 -0.92232,1.31839 c -1.30128,1.86005 -0.41846,1.21765 1.77182,-1.28932 z"
           id="path988"
           inkscape:connector-curvature="0" />
      </g>
    </g>
  </g>
</svg>
