<svg height="512" viewBox="0 0 512 512" width="512" xmlns="http://www.w3.org/2000/svg"><g id="Flat"><circle cx="256" cy="256" fill="#ad7d4d" r="232"/><path d="m344 256a15.99742 15.99742 0 0 1 -30.58008 6.58008 15.7356 15.7356 0 0 1 -1.41992-6.58008 15.99548 15.99548 0 0 1 16-16 15.73516 15.73516 0 0 1 6.58008 1.41992 15.97306 15.97306 0 0 1 9.41992 14.58008z" fill="#eedc9a"/><path d="m272 248h-32l1-7 2.04-14.25 4.96-34.75h16l4.96 34.75 2.04 14.25z" fill="#eedc9a"/><path d="m272 184a15.99738 15.99738 0 0 1 -30.58 6.58008 15.73387 15.73387 0 0 1 -1.42-6.58008 15.99552 15.99552 0 0 1 16-16 15.73516 15.73516 0 0 1 6.58008 1.41992 15.97306 15.97306 0 0 1 9.41992 14.58008z" fill="#eedc9a"/><path d="m248 240v32l-7-1-14.25-2.04-34.75-4.96v-16l34.75-4.96 14.25-2.04z" fill="#eedc9a"/><path d="m200 256a15.99738 15.99738 0 0 1 -30.58 6.58008 15.73472 15.73472 0 0 1 -1.42-6.58008 15.99552 15.99552 0 0 1 16-16 15.73489 15.73489 0 0 1 6.58 1.41992 15.973 15.973 0 0 1 9.42 14.58008z" fill="#eedc9a"/><path d="m272 264-1 7-2.04 14.25-4.96 34.75h-16l-4.96-34.75-2.04-14.25-1-7z" fill="#eedc9a"/><path d="m272 328a15.99738 15.99738 0 0 1 -30.58 6.58008 15.73472 15.73472 0 0 1 -1.42-6.58008 15.99568 15.99568 0 0 1 16-16 15.73516 15.73516 0 0 1 6.58008 1.41992 15.97281 15.97281 0 0 1 9.41992 14.58008z" fill="#eedc9a"/><path d="m320 248v16l-34.75 4.96-14.25 2.04-7 1v-32l7 1 14.25 2.04z" fill="#eedc9a"/><path d="m288 256a31.72548 31.72548 0 0 1 -2.75 12.96l-14.25 2.04-2.04 14.25a31.91343 31.91343 0 0 1 -25.92 0l-2.04-14.25-14.25-2.04a31.91328 31.91328 0 0 1 0-25.91992l14.25-2.04008 2.04-14.25a31.91343 31.91343 0 0 1 25.92 0l2.04 14.25 14.25 2.04a31.72632 31.72632 0 0 1 2.75 12.96z" fill="#eebe33"/><path d="m272 328a15.99738 15.99738 0 0 1 -30.58 6.58008 15.99225 15.99225 0 0 0 21.1601-21.16016 15.97281 15.97281 0 0 1 9.4199 14.58008z" fill="#eebe33"/><path d="m272 184a15.99738 15.99738 0 0 1 -30.58 6.58008 15.99225 15.99225 0 0 0 21.1601-21.16016 15.97306 15.97306 0 0 1 9.4199 14.58008z" fill="#eebe33"/><path d="m344 256a15.99742 15.99742 0 0 1 -30.58008 6.58008 15.99226 15.99226 0 0 0 21.16016-21.16016 15.97306 15.97306 0 0 1 9.41992 14.58008z" fill="#eebe33"/><circle cx="256" cy="256" fill="#eedc9a" r="24"/><path d="m200 256a15.99738 15.99738 0 0 1 -30.58 6.58008 15.99217 15.99217 0 0 0 21.16-21.16016 15.973 15.973 0 0 1 9.42 14.58008z" fill="#eebe33"/><circle cx="256" cy="256" fill="#ece9c0" r="8"/><path d="m223.80458 132.35207-20.22743-77.68459a206.4946 206.4946 0 0 0 -33.27315 11.75152l33.066 73.15016a126.77868 126.77868 0 0 1 20.43458-7.21709z" fill="#e44b4d"/><path d="m245.1668 128.71876-6.8062-79.967a207.44679 207.44679 0 0 0 -34.78345 5.91577l20.22743 77.68459a127.38254 127.38254 0 0 1 21.36222-3.63336z" fill="#395166"/><path d="m256 128.25714c3.64959 0 7.26112.16167 10.8332.46162l6.8062-79.967c-5.8164-.48858-11.69677-.75176-17.6394-.75176s-11.82306.26318-17.6394.75171l6.8062 79.96705c3.57208-.29995 7.18355-.46162 10.8332-.46162z" fill="#349966"/><path d="m167.61221 163.77778-55.53152-57.94038a209.14018 209.14018 0 0 0 -23.31537 26.4766l64.52777 47.72452a128.45184 128.45184 0 0 1 14.31912-16.26074z" fill="#395166"/><path d="m184.461 150.1547-44.94592-66.4997a208.96462 208.96462 0 0 0 -27.43439 22.18237l55.53152 57.94038a128.35413 128.35413 0 0 1 16.84879-13.62305z" fill="#e44b4d"/><path d="m153.29309 180.03848-64.52777-47.72448a208.02771 208.02771 0 0 0 -18.52432 30.02829l71.67543 36.13793a127.75761 127.75761 0 0 1 11.37666-18.44174z" fill="#e44b4d"/><path d="m141.9164 198.48022-71.6754-36.13793a206.61463 206.61463 0 0 0 -13.16706 32.7373l76.756 23.50629a126.89364 126.89364 0 0 1 8.08646-20.10566z" fill="#395166"/><path d="m288.19542 132.35207 20.22743-77.68459a207.44661 207.44661 0 0 0 -34.78345-5.91577l-6.8062 79.96705a127.38358 127.38358 0 0 1 21.36222 3.63331z" fill="#e44b4d"/><path d="m380.89244 282.91641 78.46645 16.91074a208.2326 208.2326 0 0 0 4.44177-35l-80.18026-3.40608a127.86152 127.86152 0 0 1 -2.72796 21.49534z" fill="#395166"/><path d="m383.74286 256c0 1.81711-.04724 3.62276-.12246 5.42107l80.18026 3.40608c.12234-2.92822.19934-5.86865.19934-8.82715a210.00023 210.00023 0 0 0 -1.66333-26.42236l-79.61519 10.19492a128.97939 128.97939 0 0 1 1.02138 16.22744z" fill="#e44b4d"/><path d="m382.72148 239.77256 79.61519-10.19492a206.79957 206.79957 0 0 0 -7.41064-34.49805l-76.75594 23.50629a127.019 127.019 0 0 1 4.55139 21.18668z" fill="#395166"/><path d="m378.17009 218.58588 76.75591-23.50629a206.6087 206.6087 0 0 0 -13.167-32.7373l-71.67549 36.13793a126.89387 126.89387 0 0 1 8.08658 20.10566z" fill="#e44b4d"/><path d="m133.82991 218.58588-76.756-23.50629a206.81761 206.81761 0 0 0 -7.41064 34.49805l79.61531 10.19492a127.024 127.024 0 0 1 4.55133-21.18668z" fill="#e44b4d"/><path d="m327.539 150.1547 44.94586-66.4997a207.65672 207.65672 0 0 0 -30.78886-17.236l-33.066 73.15016a127.51166 127.51166 0 0 1 18.909 10.58554z" fill="#e44b4d"/><path d="m370.08354 198.48022 71.67546-36.13793a208.01748 208.01748 0 0 0 -18.52438-30.02829l-64.52776 47.72452a127.74784 127.74784 0 0 1 11.37668 18.4417z" fill="#395166"/><path d="m344.38779 163.77778 55.53152-57.94038a208.96123 208.96123 0 0 0 -27.43445-22.1824l-44.94586 66.4997a128.35018 128.35018 0 0 1 16.84879 13.62308z" fill="#395166"/><path d="m308.63 139.56916 33.066-73.15016a206.49731 206.49731 0 0 0 -33.27319-11.75147l-20.22743 77.68459a126.77664 126.77664 0 0 1 20.43462 7.21704z" fill="#395166"/><path d="m358.70686 180.03848 64.52776-47.72448a209.13027 209.13027 0 0 0 -23.31531-26.47656l-55.53152 57.94038a128.44751 128.44751 0 0 1 14.31907 16.26066z" fill="#e44b4d"/><path d="m203.37 139.56916-33.066-73.15016a207.661 207.661 0 0 0 -30.78892 17.236l44.94592 66.4997a127.51216 127.51216 0 0 1 18.909-10.58554z" fill="#395166"/><path d="m298.56459 376.46981 26.74217 75.68742a206.91493 206.91493 0 0 0 32.14466-14.55078l-39.14531-70.07315a127.11249 127.11249 0 0 1 -19.74152 8.93651z" fill="#395166"/><path d="m277.59061 381.917 13.56479 79.10983a206.49418 206.49418 0 0 0 34.15136-8.86963l-26.74217-75.68742a126.875 126.875 0 0 1 -20.97398 5.44722z" fill="#e44b4d"/><path d="m256 383.74286v80.25714a209.32057 209.32057 0 0 0 35.1554-2.97314l-13.56479-79.10986a128.58189 128.58189 0 0 1 -21.59061 1.82586z" fill="#395166"/><path d="m318.30611 367.5333 39.14531 70.07315a208.41132 208.41132 0 0 0 29.21358-19.78077l-50.4173-62.44068a127.98 127.98 0 0 1 -17.94159 12.1483z" fill="#e44b4d"/><path d="m336.2477 355.385 50.4173 62.44068a209.247 209.247 0 0 0 25.46655-24.41259l-60.2435-53.02093a128.52888 128.52888 0 0 1 -15.64035 14.99284z" fill="#395166"/><path d="m234.40939 381.917-13.56479 79.10986a209.32 209.32 0 0 0 35.1554 2.97314v-80.25714a128.58144 128.58144 0 0 1 -21.59061-1.82586z" fill="#e44b4d"/><path d="m364.78561 322.9819 68.34671 42.08255a207.242 207.242 0 0 0 15.90821-31.49414l-74.48495-29.93091a127.27954 127.27954 0 0 1 -9.76997 19.3425z" fill="#395166"/><path d="m380.89244 282.91641a126.761 126.761 0 0 1 -6.33686 20.723l74.48495 29.93091a206.41856 206.41856 0 0 0 10.31836-33.74316z" fill="#e44b4d"/><path d="m351.88809 340.39216 60.2435 53.02093a208.69362 208.69362 0 0 0 21.00073-28.34864l-68.34671-42.08255a128.1927 128.1927 0 0 1 -12.89752 17.41026z" fill="#e44b4d"/><path d="m175.7523 355.385-50.4173 62.44068a208.40792 208.40792 0 0 0 29.21369 19.78077l39.14519-70.07315a127.98238 127.98238 0 0 1 -17.94158-12.1483z" fill="#395166"/><path d="m137.44442 303.6394-74.485 29.93091a207.24786 207.24786 0 0 0 15.90827 31.49414l68.34676-42.08255a127.27519 127.27519 0 0 1 -9.77003-19.3425z" fill="#e44b4d"/><path d="m131.10751 282.91641-78.46634 16.91074a206.41823 206.41823 0 0 0 10.31824 33.74316l74.485-29.93091a126.76014 126.76014 0 0 1 -6.3369-20.72299z" fill="#395166"/><path d="m128.37954 261.42107-80.1802 3.40608a208.22644 208.22644 0 0 0 4.44183 35l78.46634-16.91074a127.878 127.878 0 0 1 -2.72797-21.49534z" fill="#e44b4d"/><path d="m147.21444 322.9819-68.34676 42.08255a208.6932 208.6932 0 0 0 21.00067 28.34864l60.24365-53.02093a128.18354 128.18354 0 0 1 -12.89756-17.41026z" fill="#395166"/><path d="m128.25714 256a128.97935 128.97935 0 0 1 1.02144-16.22744l-79.61531-10.19492a210.01154 210.01154 0 0 0 -1.66327 26.42236c0 2.9585.077 5.89893.19934 8.82715l80.1802-3.40608c-.0751-1.79831-.1224-3.60396-.1224-5.42107z" fill="#395166"/><path d="m193.69384 367.5333-39.14519 70.07315a206.9112 206.9112 0 0 0 32.14459 14.55078l26.74211-75.68742a127.117 127.117 0 0 1 -19.74151-8.93651z" fill="#e44b4d"/><path d="m160.112 340.39216-60.24365 53.02093a209.24749 209.24749 0 0 0 25.46665 24.41259l50.4173-62.44068a128.52836 128.52836 0 0 1 -15.6403-14.99284z" fill="#e44b4d"/><path d="m213.43535 376.46981-26.74211 75.68742a206.49726 206.49726 0 0 0 34.15136 8.86963l13.56479-79.10986a126.877 126.877 0 0 1 -20.97404-5.44719z" fill="#395166"/><g fill="#eedc9a"><path d="m256 432c-97.04688 0-176-78.95312-176-176s78.95312-176 176-176 176 78.95312 176 176-78.95312 176-176 176zm0-336c-88.22412 0-160 71.77539-160 160s71.77588 160 160 160 160-71.77539 160-160-71.77588-160-160-160z"/><path d="m256 472a216.00006 216.00006 0 0 1 -152.73486-368.73535 216.00006 216.00006 0 0 1 305.46972 305.4707 214.58539 214.58539 0 0 1 -152.73486 63.26465zm0-416c-110.28027 0-200 89.71973-200 200s89.71973 200 200 200 200-89.71973 200-200-89.71973-200-200-200z"/><path d="m238.09 48.582h8v88.006h-8z" transform="matrix(.996 -.085 .085 .996 -6.977 20.854)"/><path d="m225.907 88.585h88.006v8h-88.006z" transform="matrix(.085 -.996 .996 .085 154.793 353.682)"/><path d="m253.324 93.26h88.023v8h-88.023z" transform="matrix(.252 -.968 .968 .252 128.231 360.454)"/><path d="m279.562 102.52h88.016v8h-88.016z" transform="matrix(.412 -.911 .911 .412 93.238 357.501)"/><path d="m303.837 116.11h88.016v8h-88.016z" transform="matrix(.56 -.828 .828 .56 53.53 341.021)"/><path d="m325.474 133.6h88.012v8h-88.012z" transform="matrix(.692 -.722 .722 .692 14.483 309.141)"/><path d="m343.856 154.475h88.008v8h-88.008z" transform="matrix(.804 -.595 .595 .804 -18.212 261.697)"/><path d="m358.457 178.155h88.026v7.999h-88.026z" transform="matrix(.893 -.45 .45 .893 -38.912 200.715)"/><path d="m368.842 203.964h88.017v8.001h-88.017z" transform="matrix(.956 -.293 .293 .956 -42.79 129.947)"/><path d="m374.684 231.17h88.013v8h-88.013z" transform="matrix(.992 -.127 .127 .992 -26.489 55.109)"/><path d="m415.845 218.95h7.999v88.009h-7.999z" transform="matrix(.042 -.999 .999 .042 139.33 671.277)"/><path d="m412.345 246.542h8v88.027h-8z" transform="matrix(.211 -.978 .978 .211 44.579 636.323)"/><path d="m404.21 273.147h8.001v88.027h-8.001z" transform="matrix(.373 -.928 .928 .373 -38.28 577.685)"/><path d="m391.665 297.985h8v88.019h-8z" transform="matrix(.524 -.852 .852 .524 -103.006 499.597)"/><path d="m375.105 320.346h8v88.009h-8z" transform="matrix(.661 -.751 .751 .661 -144.864 408.259)"/><path d="m355.025 339.592h7.999v88.006h-7.999z" transform="matrix(.778 -.628 .628 .778 -161.294 310.712)"/><path d="m331.995 355.181h8.001v88.028h-8.001z" transform="matrix(.873 -.488 .488 .873 -152.017 214.55)"/><path d="m306.645 366.655h8v88.03h-8z" transform="matrix(.943 -.333 .333 .943 -119.079 126.967)"/><path d="m279.72 373.656h8v88.007h-8z" transform="matrix(.986 -.169 .169 .986 -66.533 53.985)"/><path d="m252 376h8v88h-8z"/><path d="m184.276 413.66h88.007v8h-88.007z" transform="matrix(.169 -.986 .986 .169 -221.981 571.986)"/><path d="m157.34 406.67h88.03v8h-88.03z" transform="matrix(.333 -.943 .943 .333 -252.942 463.664)"/><path d="m131.991 395.195h88.028v8.001h-88.028z" transform="matrix(.488 -.873 .873 .488 -258.332 358.134)"/><path d="m108.972 379.596h88.006v7.999h-88.006z" transform="matrix(.628 -.778 .778 .628 -241.576 261.627)"/><path d="m88.891 360.35h88.009v8h-88.009z" transform="matrix(.751 -.661 .661 .751 -207.571 178.622)"/><path d="m72.325 337.995h88.019v8h-88.019z" transform="matrix(.852 -.524 .524 .852 -162.031 111.763)"/><path d="m59.777 313.16h88.027v8.001h-88.027z" transform="matrix(.928 -.373 .373 .928 -110.75 61.552)"/><path d="m51.642 286.555h88.027v8h-88.027z" transform="matrix(.978 -.211 .211 .978 -59.072 26.677)"/><path d="m48.15 258.955h88.009v7.999h-88.009z" transform="matrix(.999 -.042 .042 .999 -11.057 4.14)"/><path d="m89.31 191.164h8v88.013h-8z" transform="matrix(.127 -.992 .992 .127 -151.807 297.852)"/><path d="m95.15 163.956h8.001v88.017h-8.001z" transform="matrix(.293 -.956 .956 .293 -128.731 241.882)"/><path d="m105.53 138.142h7.999v88.026h-7.999z" transform="matrix(.45 -.893 .893 .45 -102.432 197.949)"/><path d="m120.14 114.47h8v88.008h-8z" transform="matrix(.595 -.804 .804 .595 -77.091 164.056)"/><path d="m138.52 93.594h8v88.012h-8z" transform="matrix(.722 -.692 .692 .722 -55.584 136.878)"/><path d="m160.155 76.102h8v88.016h-8z" transform="matrix(.828 -.56 .56 .828 -39.108 112.529)"/><path d="m184.43 62.512h8v88.016h-8z" transform="matrix(.911 -.412 .412 .911 -27.15 87.087)"/><path d="m210.665 53.248h8v88.023h-8z" transform="matrix(.968 -.252 .252 .968 -17.586 57.257)"/></g><circle cx="256" cy="104" fill="#c4d4e0" r="16"/><path d="m256 128a128 128 0 1 0 128 128 128.14418 128.14418 0 0 0 -128-128zm0 240a112 112 0 1 1 112-112 111.99484 111.99484 0 0 1 -112 112z" fill="#c4d4e0"/></g></svg>