<svg id="Layer_1" height="512" viewBox="0 0 512 512" width="512" xmlns="http://www.w3.org/2000/svg" data-name="Layer 1"><path d="m440.2 126.92 7.11 12.32-7.11 12.33h-14.22l-7.11-12.33 7.11-12.32z" fill="#d4e1f4"/><path d="m365.56 142.43 17.31 18.5-24.66 2.97-13.78-18.11z" fill="#de3c44"/><path d="m344.92 122.49-9.71 24.77 56.32-8.97 7.96-25.09z" fill="#fb6771"/><path d="m386.2 96.35 13.29 16.85-21.53 3.66-16.42-17.54z" fill="#de3c44"/><path d="m327.181 167.63-.189-.072-.037.1-.355.043-11.533 31.047a6 6 0 0 0 3.461 7.747 6 6 0 0 0 7.747-3.461l4.7-12.3 42.453-5.107 9.44-24.7z" fill="#fb6771"/><path d="m425.888 53.757a6 6 0 0 0 -7.747 3.462l-4.7 12.294-42.451 5.107-9.45 24.7 55.694-6.7.19.072.038-.1.358-.043 11.53-31.045a6 6 0 0 0 -3.462-7.747z" fill="#fb6771"/><path d="m372.93 25.21 4.95 13.34-9.07 10.97-14.02-2.38-4.95-13.34 9.07-10.96z" fill="#fff27d"/><path d="m161.42 23.34 7.11 12.32-7.11 12.33h-14.22l-7.11-12.33 7.11-12.32z" fill="#fff27d"/><path d="m308.46 103.48 7.11 12.32-7.11 12.33h-14.22l-7.11-12.33 7.11-12.32z" fill="#49bdff"/><path d="m277.05 188.71a9.405 9.405 0 1 1 -9.41 9.4 9.4 9.4 0 0 1 9.41-9.4z" fill="#d4e1f4"/><circle cx="183.84" cy="215.71" fill="#49bdff" r="10.72"/><path d="m151.72 150.7-12.63 20.34-21.91-.55 10.2-17.92z" fill="#4ca987"/><path d="m125.87 109.42-10.22 18.41-23.08 1.78 12.63-20.34z" fill="#4ca987"/><g fill="#9be147"><path d="m125.87 109.42-25.91 46.66 12.76 22.24 27.21-47.78z"/><path d="m143.236 207.057 21.344-34.367-12.86-21.99-28.83 46.42 17.953 29.612a6 6 0 0 0 8.209 2.149 6 6 0 0 0 2.149-8.208z"/><path d="m104.444 53.572a6 6 0 0 0 -8.208-2.15 6 6 0 0 0 -2.149 8.209l7.48 12.786-21.867 35.203 12.87 21.99 28.83-46.43z"/></g><path d="m258.85 80.67-17.28 13.36-22.73-7.77 20.37-14.21z" fill="#604af3"/><path d="m258.85 80.67-43.8 33.86 3.06 26.43 45.5-34.4z" fill="#867af4"/><path d="m266.61 130.61-20.38 14.22-20.67-9.5 17.07-12.9z" fill="#604af3"/><path d="m261.163 18.942a6 6 0 1 0 -11.908 1.482l1.845 14.811-35.53 24.785 3.27 26.24 46.49-32.44z" fill="#867af4"/><path d="m234.346 181.646 35.524-24.8-3.26-26.24-46.5 32.45 4.17 34.874a6 6 0 0 0 11.909-1.482z" fill="#867af4"/><path d="m259.99 235.78c-99.47 31.83-177.2 16.27-177.2 36.33 0 13.72 38.53 25.9 93.29 32.08l172.03-.5c52.13-6.33 89.09-18.26 89.09-31.58 0-20.06-84.01-66.14-177.21-36.33z" fill="#5a616d"/><path d="m393.45 479a2.51 2.51 0 0 1 .17.89c0 9.6-59.3 17.38-132.44 17.38s-132.45-7.78-132.45-17.38a2.381 2.381 0 0 1 .19-.93 1.417 1.417 0 0 1 .08-.18c4.38-9.08 61.89-16.26 132.18-16.26 69.87 0 127.11 7.1 132.09 16.1a2.64 2.64 0 0 1 .18.38z" fill="#565d6b"/><path d="m369.41 418.06c10.56 35.87 22.28 57.44 23.86 60.56-4.98-9-62.22-16.1-132.09-16.1-70.29 0-127.8 7.18-132.18 16.26 1.01-2.31 11.84-27.41 22.87-60.6l.14.05c23.88-4.55 63.87-7.53 109.17-7.53 44.71 0 84.25 2.9 108.23 7.36z" fill="#867af4"/><path d="m261.18 410.7c-45.3 0-85.29 2.98-109.17 7.53l-.14-.05c9.66-29.08 19.47-64.37 22.94-96l.33.04c10.4 1.41 23.49 3.63 40.95.73 34.15-5.7 46-16.26 68.67-18.2 14.9-1.27 36.8.97 64.9 18.61l.32-.04c2.79 23.7 6.6 38.08 9.87 55.18 2.8 14.61 6.12 27.85 9.56 39.56-23.98-4.46-63.52-7.36-108.23-7.36z" fill="#6d7486"/><path d="m183.233 414.026c-12.128 1.159-22.705 2.581-31.223 4.2l-.14-.05c-11.03 33.19-21.86 58.29-22.87 60.6 1.968-4.08 14.67-7.776 34.435-10.61 4.372-10.753 11.36-28.7 18.435-49.99.454-1.363.908-2.757 1.363-4.15z" fill="#b9b6ff"/><path d="m183.233 414.026c9-27.619 17.85-60.2 21.331-89.815-11.89.638-21.452-.91-29.424-1.991l-.33-.04c-3.47 31.63-13.28 66.92-22.94 96l.14.05c8.518-1.623 19.095-3.045 31.223-4.204z" fill="#b0b5ca"/><path d="m122.79 272.11c0-20.06 77.73-4.5 177.2-36.33a205.038 205.038 0 0 1 42.659-8.8 205.817 205.817 0 0 0 -82.659 8.8c-99.47 31.83-177.2 16.27-177.2 36.33 0 13.72 38.53 25.9 93.29 32.08l39.033-.114c-54.242-6.213-92.323-18.327-92.323-31.966z" fill="#4a5160"/><path d="m349.98 323.32-.32.04c-28.1-17.64-50-19.88-64.9-18.61-22.67 1.94-34.52 12.5-68.67 18.2-17.46 2.9-30.55.68-40.95-.73l-.33-.04c.68-6.16 1.12-12.18 1.27-17.99q.06-2.085.06-4.14a11.414 11.414 0 0 1 13.48-11.25 130.829 130.829 0 0 0 29.99 2.12c21.16-.96 33.34-6.79 47.68-10.23 16.15-3.87 39.38-5.75 70.55 2.99a13.331 13.331 0 0 1 9.72 12q.255 4.155.55 8.01c.54 7.25 1.17 13.73 1.87 19.63z" fill="#b0b5ca"/><path d="m204.564 324.211c.079-.676.172-1.359.246-2.031.68-6.16 1.12-12.18 1.27-17.99q.06-2.085.06-4.14a11.426 11.426 0 0 1 4.442-9.045 132.358 132.358 0 0 1 -20.962-2.2 11.414 11.414 0 0 0 -13.48 11.25q0 2.055-.06 4.14c-.15 5.81-.59 11.83-1.27 17.99l.33.04c7.972 1.075 17.534 2.624 29.424 1.986z" fill="#ccd3df"/><path d="m390.758 217.92a6 6 0 0 1 -5.878-7.234l.832-3.966a15.877 15.877 0 0 1 15.488-12.568h.117a3.808 3.808 0 0 0 3.533-2.361l2.262-5.471a6 6 0 0 1 11.089 4.586l-2.262 5.47a15.778 15.778 0 0 1 -14.717 9.776 3.82 3.82 0 0 0 -3.763 3.035l-.833 3.965a6 6 0 0 1 -5.868 4.768z" fill="#f3a4ef"/><path d="m311.779 70.639a6 6 0 0 1 -5.843-4.662l-.8-3.479a20.312 20.312 0 0 1 4.448-17.393 8.541 8.541 0 0 0 1.79-5.9l-.459-5.519a6 6 0 1 1 11.959-.994l.459 5.52a20.419 20.419 0 0 1 -4.828 14.919 8.527 8.527 0 0 0 -1.672 6.688l.8 3.478a6.006 6.006 0 0 1 -5.854 7.342z" fill="#f3a4ef"/><path d="m74.975 66.689a6.007 6.007 0 0 1 -5.849-7.362l.919-3.948a3.834 3.834 0 0 0 -2.128-4.34 15.759 15.759 0 0 1 -9.217-15.075l.259-5.916a6 6 0 0 1 11.989.525l-.259 5.916a3.8 3.8 0 0 0 2.223 3.641 15.874 15.874 0 0 1 8.82 17.97l-.919 3.948a6 6 0 0 1 -5.838 4.641z" fill="#ffa4c2"/><path d="m177.79 122.6a6 6 0 0 1 -5.707-7.856l1.253-3.855a3.833 3.833 0 0 0 -1.749-4.506 15.758 15.758 0 0 1 -7.89-15.808l.764-5.872a6 6 0 0 1 11.9 1.548l-.764 5.872a3.8 3.8 0 0 0 1.9 3.818 15.874 15.874 0 0 1 7.247 18.658l-1.253 3.855a6 6 0 0 1 -5.701 4.146z" fill="#ffa4c2"/></svg>