<svg id="Layer_1" enable-background="new 0 0 512 512" height="512" viewBox="0 0 512 512" width="512" xmlns="http://www.w3.org/2000/svg"><g><path d="m155.557 176.161s-32.708 8.241-51.511 23.842c-10.376 5.131-17.511 15.823-17.511 28.182 0 17.353 14.067 31.42 31.42 31.42h37.602z" fill="#bc845e"/><path d="m155.557 235.911h-38.117c-4.268 0-7.726-3.459-7.726-7.726s3.459-7.726 7.726-7.726h38.117c4.268 0 7.726 3.459 7.726 7.726.001 4.267-3.458 7.726-7.726 7.726z" fill="#ad775c"/><path d="m356.443 259.606h37.602c17.353 0 31.421-14.067 31.421-31.42 0-12.32-7.091-22.984-17.414-28.133-2.847-8.727-51.609-23.891-51.609-23.891z" fill="#bc845e"/><path d="m394.559 235.911h-38.117c-4.268 0-7.726-3.459-7.726-7.726s3.459-7.726 7.726-7.726h38.117c4.268 0 7.726 3.459 7.726 7.726.001 4.267-3.458 7.726-7.726 7.726z" fill="#ad775c"/><path d="m366.745 284.845h-197.022l-34.769-56.66v-70.052h231.791z" fill="#d19a6e"/><path d="m377.046 158.133v70.052l-30.905 15.453v-85.505z" fill="#bc845e"/><path d="m331.718 396.62c45.516 0 82.414 36.898 82.414 82.414v12.362c0 11.379-9.225 20.604-20.604 20.604h-114.349l-23.179-13.392-23.179 13.392h-140.105c-11.379 0-20.604-9.225-20.604-20.604v-12.362c0-45.516 36.898-82.414 82.414-82.414z" fill="#6f6571"/><path d="m439.887 479.034v12.362c0 11.383-9.22 20.604-20.604 20.604h-30.905c11.384 0 20.604-9.22 20.604-20.604v-12.362c0-45.513-36.901-82.414-82.414-82.414h30.905c45.513 0 82.414 36.901 82.414 82.414z" fill="#5d5360"/><path d="m317.296 251.364c-4.268 0-7.726-3.459-7.726-7.726v-15.453c0-4.267 3.459-7.726 7.726-7.726 4.268 0 7.726 3.459 7.726 7.726v15.453c0 4.267-3.459 7.726-7.726 7.726z" fill="#ad775c"/><path d="m194.704 251.364c-4.268 0-7.726-3.459-7.726-7.726v-15.453c0-4.267 3.459-7.726 7.726-7.726s7.726 3.459 7.726 7.726v15.453c.001 4.267-3.458 7.726-7.726 7.726z" fill="#ad775c"/><path d="m256 481.095c-12.801 0-23.179 10.378-23.179 23.179v7.726h46.358v-7.726c0-12.802-10.377-23.179-23.179-23.179z" fill="#ffe07d"/><path d="m366.745 382.712c0 10.384-24.724 36.056-43.471 34.603-3.338-1.207-6.404-2.666-9.109-4.161-5.645-3.121-12.609-.319-14.639 5.8-3.018 9.127-8.839 16.977-16.431 22.551-7.582 5.573-16.957 8.86-27.094 8.86-20.274 0-37.478-13.166-43.525-31.41-2.029-6.119-8.993-8.921-14.639-5.8-3.338 1.844-7.222 3.637-11.497 4.965-4.265 1.329-8.921 2.194-13.784 2.194-20.768 0-37.602-16.833-37.602-37.602v-154.527h15.453c8.53 0 15.453 6.923 15.453 15.453v26.27c0 2.843 2.308 5.151 5.151 5.151h169.98c2.843 0 5.151-2.308 5.151-5.151z" fill="#faf2f3"/><path d="m377.046 228.185v154.527c0 10.384-4.203 19.779-11.013 26.589-6.81 6.809-16.205 11.013-26.589 11.013-5.79 0-11.27-1.226-16.163-2.998 4.45-1.895 8.468-4.636 11.847-8.015 6.809-6.809 11.013-16.205 11.013-26.589v-139.074c0-8.53 6.923-15.453 15.453-15.453z" fill="#f0e5e0"/><path d="m255.923 323.529c-15.063 0-30.097-5.313-42.611-15.941-3.253-2.763-3.65-7.638-.888-10.891 2.763-3.252 7.638-3.65 10.89-.888 19.156 16.269 46.049 16.259 65.398-.023 3.267-2.749 8.138-2.328 10.887.938 2.746 3.265 2.327 8.139-.938 10.886-12.611 10.612-27.69 15.919-42.738 15.919z" fill="#cfc6c3"/><path d="m194.704 158.133v18.028c0 11.383-9.22 20.604-20.604 20.604h-56.145c-4.996 0-9.715 1.164-13.907 3.245v-38.786l30.905-1.401 37.087-1.69z" fill="#faf2f3"/><path d="m346.234 196.765h-8.334c-11.384 0-20.604-9.22-20.604-20.604v-17.173l90.656-11.157z" fill="#faf2f3"/><path d="m408.055 200.061c-4.214-2.112-8.973-3.297-14.011-3.297h-47.811l-.093-48.934h61.811z" fill="#f0e5e0"/><path d="m318.738 0h73.859c12.897 0 20.119 14.867 12.147 25.005l-44.695 56.895z" fill="#8f8fea"/><path d="m136.018 104.605 27.934-83.504c4.216-12.604 16.018-21.101 29.308-21.101h98.691c13.292 0 25.096 8.499 29.311 21.106l27.839 83.269-93.149 21.479z" fill="#c3aff0"/><path d="m375.769 104.048-28.598 12.105-2.308-12.105-27.722-82.94c-4.213-12.609-16.019-21.108-29.308-21.108h30.905c13.289 0 25.095 8.499 29.309 21.108z" fill="#a69ded"/><path d="m363.654 145.256v-25.755c0-8.534-6.918-15.453-15.453-15.453h-213.247c-8.534 0-15.453 6.918-15.453 15.453v25.755z" fill="#ccf49f"/><path d="m392.499 119.501v25.755h-30.905v-25.755c0-8.53-6.923-15.453-15.453-15.453h30.905c8.53 0 15.453 6.923 15.453 15.453z" fill="#b3e59f"/><path d="m460.234 169.722c-12.877-29.875-62.583-34.769-62.583-34.769h-307.837c-11.062 0-21.78 3.966-30.177 11.168l-21.018 18.023c-6.478 5.555-7.226 15.311-1.671 21.79 3.056 3.564 7.384 5.394 11.737 5.394 3.56 0 7.138-1.223 10.052-3.723l21.018-18.024c2.799-2.4 6.371-3.722 10.058-3.722h332.372c3.687 0 7.26 1.322 10.058 3.722l14.389 12.339z" fill="#c3aff0"/><path d="m475.047 185.937c-3.049 3.564-7.376 5.388-11.734 5.388-3.554 0-7.139-1.216-10.055-3.719l-6.624-5.687c2.575-6.037 1.082-13.279-4.162-17.771l-21.016-18.028c-8.087-6.933-18.327-10.868-28.958-11.147v-.021h29.69c11.064 0 21.778 3.966 30.174 11.167l21.016 18.028c6.481 5.555 7.233 15.311 1.669 21.79z" fill="#a69ded"/><path d="m258.131 31.696 1.362 2.862c2.958 6.214 8.823 10.54 15.633 11.532l3.174.462c1.697.247 2.367 2.339 1.129 3.526l-2.678 2.567c-4.851 4.649-7.13 11.371-6.107 18.012l.549 3.566c.258 1.675-1.505 2.928-3.002 2.134l-3.015-1.6c-5.991-3.179-13.162-3.206-19.176-.072l-3.14 1.636c-1.526.795-3.296-.52-2.976-2.21l.623-3.296c1.27-6.723-.879-13.638-5.738-18.456l-2.308-2.289c-1.207-1.197-.527-3.258 1.155-3.502l3.706-.537c6.613-.959 12.351-5.065 15.392-11.015l1.722-3.37c.777-1.523 2.961-1.492 3.695.05z" fill="#ffe07d"/></g></svg>