<?xml version="1.0" encoding="UTF-8" standalone="no"?>
<!-- Created with Inkscape (http://www.inkscape.org/) -->

<svg
   xmlns:dc="http://purl.org/dc/elements/1.1/"
   xmlns:cc="http://creativecommons.org/ns#"
   xmlns:rdf="http://www.w3.org/1999/02/22-rdf-syntax-ns#"
   xmlns:svg="http://www.w3.org/2000/svg"
   xmlns="http://www.w3.org/2000/svg"
   xmlns:sodipodi="http://sodipodi.sourceforge.net/DTD/sodipodi-0.dtd"
   xmlns:inkscape="http://www.inkscape.org/namespaces/inkscape"
   width="200mm"
   height="200mm"
   viewBox="0 0 200 200"
   version="1.1"
   id="svg8"
   inkscape:version="0.92.5 (2060ec1f9f, 2020-04-08)"
   sodipodi:docname="background.svg">
  <defs
     id="defs2" />
  <sodipodi:namedview
     id="base"
     pagecolor="#ffffff"
     bordercolor="#666666"
     borderopacity="1.0"
     inkscape:pageopacity="0.0"
     inkscape:pageshadow="2"
     inkscape:zoom="5.6"
     inkscape:cx="704.07215"
     inkscape:cy="30.352183"
     inkscape:document-units="mm"
     inkscape:current-layer="layer1"
     showgrid="false"
     inkscape:window-width="1854"
     inkscape:window-height="1016"
     inkscape:window-x="66"
     inkscape:window-y="27"
     inkscape:window-maximized="1" />
  <metadata
     id="metadata5">
    <rdf:RDF>
      <cc:Work
         rdf:about="">
        <dc:format>image/svg+xml</dc:format>
        <dc:type
           rdf:resource="http://purl.org/dc/dcmitype/StillImage" />
        <dc:title></dc:title>
      </cc:Work>
    </rdf:RDF>
  </metadata>
  <g
     inkscape:label="Layer 1"
     inkscape:groupmode="layer"
     id="layer1"
     transform="translate(0,-97)">
    <rect
       style="fill:#4a5568;fill-opacity:1;stroke-width:0.2494377"
       id="rect828"
       width="200.4689"
       height="200.16342"
       x="0.0096522057"
       y="96.987732" />
    <path
       style="fill:#2d3748;fill-opacity:1;stroke-width:0.42270109"
       d="m 0.00965221,292.9264 c 0,-2.85614 0.15473252,-4.22473 0.47738498,-4.22473 0.67906471,0 7.98120881,7.22069 7.98120881,7.8922 0,0.42421 -1.0097576,0.55725 -4.2292969,0.55725 H 0.00965221 Z m 11.84204079,3.66747 c 0,-0.86136 7.400563,-7.8922 8.307234,-7.8922 0.876557,0 8.187046,7.0807 8.187046,7.92971 0,0.39356 -2.002109,0.51974 -8.247148,0.51974 -6.545953,0 -8.247132,-0.11497 -8.247132,-0.55725 z m 19.877727,0.0398 c 0,-0.90887 7.458202,-7.93199 8.42341,-7.93199 0.974783,0 8.494448,7.01266 8.494032,7.92135 -1.91e-4,0.40486 -1.974038,0.5281 -8.45885,0.5281 -6.392035,0 -8.458592,-0.12647 -8.458592,-0.51745 z m 20.300649,-0.0583 c 0,-0.87773 7.276472,-7.87366 8.189442,-7.87366 0.904978,0 8.304838,7.03217 8.304838,7.8922 0,0.44229 -1.701195,0.55724 -8.247148,0.55724 -6.679937,0 -8.247132,-0.10937 -8.247132,-0.57575 z m 19.877711,0.0185 c 0,-0.90769 7.40435,-7.89217 8.366617,-7.89217 0.930569,0 8.550602,7.08096 8.550602,7.94569 0,0.37324 -2.191559,0.50376 -8.45861,0.50376 -6.721034,0 -8.458609,-0.11449 -8.458609,-0.55725 z m 19.877725,0.058 c 0,-0.90837 7.571199,-7.95013 8.547925,-7.95013 0.97394,0 8.36928,7.02223 8.36928,7.94705 0,0.37147 -2.20436,0.5024 -8.45859,0.5024 -6.224697,0 -8.458615,-0.13189 -8.458615,-0.49929 z m 20.300655,-0.058 c 0,-0.86133 7.40056,-7.89217 8.30722,-7.89217 0.87657,0 8.18706,7.0807 8.18706,7.92971 0,0.39356 -2.00212,0.51974 -8.24715,0.51974 -6.54595,0 -8.24713,-0.11497 -8.24713,-0.55725 z m 19.87771,0.0398 c 0,-0.90884 7.45822,-7.93196 8.42343,-7.93196 0.97478,0 8.49443,7.01266 8.49403,7.92136 -1.9e-4,0.40485 -1.97405,0.52809 -8.45885,0.52809 -6.39203,0 -8.45861,-0.12646 -8.45861,-0.51744 z m 20.30065,-0.0195 c 0,-0.84495 7.32808,-7.9125 8.20424,-7.9125 0.8946,0 8.29003,7.04053 8.29003,7.8922 0,0.4423 -1.70117,0.55725 -8.24712,0.55725 -6.38791,0 -8.24715,-0.12103 -8.24715,-0.5369 z m 19.87772,0.0345 c 0,-0.88289 7.39239,-7.947 8.31636,-7.947 0.93339,0 8.60084,7.08254 8.60084,7.94473 0,0.37449 -2.18255,0.50472 -8.45859,0.50472 -6.25425,0 -8.45861,-0.13094 -8.45861,-0.5024 z m 19.87773,0.003 c 0,-0.59241 7.4453,-7.94997 8.04496,-7.94997 0.24198,0 0.41363,1.75323 0.41363,4.22473 v 4.22472 h -4.2293 c -2.97136,0 -4.22929,-0.1485 -4.22929,-0.49929 z M 6.0056811,291.07689 c -1.902139,-1.94667 -3.4584476,-3.68091 -3.4584476,-3.85387 0,-0.59614 6.91811,-7.39325 7.5248605,-7.39325 1.007743,0 7.277687,6.36952 7.277687,7.39325 0,1.02374 -6.269944,7.39327 -7.277687,7.39327 -0.33437,0 -2.1642579,-1.59273 -4.0664129,-3.5394 z m 20.1487479,0.23643 c -1.818603,-1.81663 -3.306545,-3.65726 -3.306545,-4.0903 0,-0.94412 6.335562,-7.39325 7.263045,-7.39325 0.683302,0 6.456103,5.52679 7.175689,6.86989 0.350882,0.65489 -0.14642,1.35996 -3.067172,4.34911 -1.917261,1.96213 -3.77226,3.56752 -4.122199,3.56752 -0.349954,0 -2.124231,-1.48633 -3.942818,-3.30297 z m 20.000409,-0.24205 c -1.941733,-1.94977 -3.460079,-3.75471 -3.374097,-4.011 0.300674,-0.89631 6.87054,-7.2305 7.499509,-7.2305 0.916662,0 7.247907,6.4582 7.247907,7.39325 0,0.9231 -6.325539,7.39327 -7.227991,7.39327 -0.338189,0 -2.203595,-1.59526 -4.145328,-3.54502 z m 20.206276,0.30321 c -2.075637,-2.01771 -3.334869,-3.57681 -3.334869,-4.12901 0,-1.02395 6.213678,-7.4157 7.209096,-7.4157 0.972897,0 7.170541,6.42619 7.170541,7.43496 0,0.93168 -6.278639,7.35156 -7.189818,7.35156 -0.286032,0 -2.020762,-1.45882 -3.85495,-3.24181 z m 19.863308,-0.12439 c -1.826243,-1.85144 -3.320452,-3.68054 -3.320452,-4.06469 0,-0.93889 6.466764,-7.35558 7.412998,-7.35558 0.925198,0 7.389566,6.47815 7.389566,7.40532 0,0.9058 -6.525781,7.38119 -7.438639,7.38119 -0.397653,0 -2.217215,-1.51481 -4.043473,-3.36624 z m 20.490778,0.30332 c -1.74139,-1.68461 -3.35118,-3.40619 -3.57731,-3.82575 -0.34022,-0.63126 0.19012,-1.37817 3.0748,-4.33033 1.91725,-1.96213 3.77225,-3.56751 4.12219,-3.56751 0.91773,0 7.24937,6.45732 7.24937,7.39325 0,0.88059 -6.30544,7.39326 -7.158,7.39326 -0.29969,0 -1.96967,-1.37831 -3.71105,-3.06292 z m 19.65779,-0.28203 c -1.80986,-1.83973 -3.29066,-3.66607 -3.29066,-4.05851 0,-0.86043 5.70317,-6.83457 6.88108,-7.208 0.64268,-0.20378 1.55431,0.44681 3.98411,2.84329 1.73289,1.70912 3.34008,3.45078 3.57152,3.87032 0.35026,0.63495 -0.16357,1.36089 -3.06512,4.33034 -1.91727,1.96213 -3.77942,3.56751 -4.13811,3.56751 -0.35869,0 -2.13297,-1.50523 -3.94282,-3.34495 z m 20.0138,-0.22692 c -2.83621,-2.90256 -3.41382,-3.70821 -3.08259,-4.29946 0.7419,-1.32423 6.59843,-6.91518 7.24368,-6.91518 0.86001,0 7.21475,6.51197 7.21475,7.39325 0,0.8926 -6.36017,7.39326 -7.23346,7.39326 -0.3587,0 -2.22278,-1.60734 -4.14238,-3.57187 z m 20.20879,0.33007 c -1.90498,-1.8518 -3.33488,-3.59348 -3.33488,-4.062 0,-0.99459 6.21468,-7.48271 7.16735,-7.48271 1.00293,0 7.21228,6.40106 7.21228,7.43496 0,0.93168 -6.27863,7.35155 -7.18981,7.35155 -0.28605,0 -2.02076,-1.45881 -3.85494,-3.2418 z m 19.8633,-0.12439 c -1.82626,-1.85144 -3.32045,-3.67317 -3.32045,-4.04831 0,-0.95233 6.40898,-7.37197 7.35974,-7.37197 0.9746,0 7.44281,6.4029 7.44281,7.36766 0,0.93261 -6.50353,7.41886 -7.43863,7.41886 -0.39765,0 -2.21721,-1.51481 -4.04347,-3.36624 z M 0.00965221,277.29494 c 0,-6.54257 0.09031394,-7.6045 0.64675954,-7.6045 0.66594135,0 5.66787775,4.83242 6.81996365,6.58882 0.5926831,0.90355 0.5763467,1.0858 -0.1938953,2.16298 -1.1726423,1.63996 -6.2555415,6.45719 -6.81329788,6.45719 -0.31374896,0 -0.45953001,-2.41263 -0.45953001,-7.60449 z m 15.72342979,4.0651 c -1.902156,-1.94666 -3.458464,-3.80774 -3.458464,-4.13573 0,-0.80538 5.308764,-6.57121 6.707255,-7.28473 0.66049,-0.33699 1.463805,-0.43912 1.965694,-0.24989 1.247532,0.47033 6.97548,6.63739 6.97548,7.51024 0,1.05508 -6.786156,7.6995 -7.863769,7.6995 -0.530774,0 -2.210741,-1.37443 -4.326196,-3.53939 z m 20.190771,0.25232 c -2.441641,-2.3968 -3.348584,-3.57796 -3.348584,-4.36102 0,-0.78991 0.937123,-1.98766 3.54323,-4.52865 1.948783,-1.9001 3.780062,-3.45472 4.069513,-3.45472 0.289453,0 2.120747,1.55462 4.069515,3.45472 2.553741,2.48993 3.54323,3.7463 3.54323,4.49887 0,1.34042 -6.301275,7.67787 -7.634053,7.67787 -0.546854,0 -2.195139,-1.27696 -4.242851,-3.28707 z m 20.008977,-0.20715 c -1.913904,-1.92181 -3.479836,-3.82237 -3.479836,-4.22344 0,-0.75712 5.50608,-6.8173 6.843685,-7.53238 0.529208,-0.28293 1.125103,-0.21919 1.954009,0.20898 1.578417,0.81534 6.850719,6.42179 6.850719,7.28487 0,1.03822 -6.758375,7.75619 -7.802835,7.75619 -0.547366,0 -2.215712,-1.33529 -4.365742,-3.49422 z m 19.91425,-0.0184 c -1.933996,-1.9319 -3.51636,-3.72257 -3.51636,-3.97928 0,-1.22574 6.942856,-8.13963 8.17373,-8.13963 0.886563,0 7.474683,7.00717 7.474683,7.95014 0,1.20871 -6.525955,7.68132 -7.744634,7.68132 -0.527657,0 -2.257305,-1.38474 -4.387419,-3.51255 z m 20.17541,0.16582 c -2.254363,-2.22484 -3.39112,-3.66735 -3.39112,-4.30318 0,-0.63528 1.180779,-2.13595 3.51636,-4.469 1.933998,-1.9319 3.721302,-3.51255 3.97179,-3.51255 1.19669,0 8.16027,6.91838 8.16027,8.10731 0,0.23044 -1.5754,2.01763 -3.50089,3.97157 -2.28907,2.32286 -3.82357,3.55258 -4.43307,3.55258 -0.597131,0 -2.151073,-1.20292 -4.32334,-3.34673 z m 20.00296,-0.16582 c -1.934,-1.9319 -3.51636,-3.84118 -3.51636,-4.24284 0,-0.40166 1.60469,-2.35504 3.56595,-4.34083 3.03014,-3.068 3.71331,-3.56662 4.54651,-3.31824 1.33311,0.3974 7.08333,6.09016 7.39631,7.32241 0.20938,0.82447 -0.34278,1.58803 -3.28416,4.54158 -2.0322,2.04059 -3.88798,3.55047 -4.36389,3.55047 -0.4737,0 -2.33262,-1.50298 -4.34436,-3.51255 z m 20.13288,0.22548 c -2.44165,-2.3968 -3.34859,-3.57796 -3.34859,-4.36102 0,-0.78991 0.93712,-1.98766 3.54323,-4.52865 1.94878,-1.9001 3.78006,-3.45472 4.06951,-3.45472 0.28946,0 2.12073,1.55462 4.06951,3.45472 2.55375,2.48993 3.54323,3.7463 3.54323,4.49887 0,1.34042 -6.30126,7.67787 -7.63405,7.67787 -0.54685,0 -2.19514,-1.27696 -4.24284,-3.28707 z m 20.00897,-0.20715 c -1.9139,-1.92181 -3.47984,-3.82237 -3.47984,-4.22344 0,-0.75713 5.50608,-6.8173 6.84366,-7.53239 0.53076,-0.28374 1.12981,-0.21677 1.97737,0.22104 1.55678,0.80419 6.82738,6.47295 6.82738,7.34318 0,0.96449 -6.87428,7.68583 -7.86073,7.68583 -0.47483,0 -2.31231,-1.49042 -4.30784,-3.49422 z m 19.91424,-0.0184 c -1.93401,-1.9319 -3.51638,-3.71911 -3.51638,-3.97155 0,-0.71707 3.38213,-4.59136 5.60242,-6.4177 1.31507,-1.08172 2.28803,-1.57802 2.82079,-1.43885 1.2508,0.32673 7.22522,6.66236 7.22522,7.66203 0,1.18453 -6.52648,7.67862 -7.71692,7.67862 -0.56238,0 -2.21484,-1.31463 -4.41513,-3.51255 z m 20.22916,0.16718 c -2.24895,-2.184 -3.44489,-3.6675 -3.44489,-4.27324 0,-1.02555 6.09893,-7.59039 7.0517,-7.59039 0.44533,0 0.56105,1.56841 0.56105,7.6045 0,4.18248 -0.16268,7.6045 -0.3615,7.6045 -0.19884,0 -1.91169,-1.50541 -3.80636,-3.34537 z M 6.519991,270.88646 c -1.7198008,-1.66578 -3.1269077,-3.31548 -3.1269077,-3.66596 0,-0.79191 5.9816586,-6.82444 6.7668947,-6.82444 0.746904,0 6.766878,6.01345 6.766878,6.75955 0,0.72824 -6.011119,6.75956 -6.736923,6.75956 -0.2986757,0 -1.9501573,-1.36292 -3.669942,-3.02871 z m 20.061343,0.14419 c -1.830176,-1.82818 -2.8876,-3.22718 -2.8876,-3.82034 0,-0.96466 3.051348,-4.52984 5.161688,-6.03089 0.836403,-0.59493 1.372325,-0.71914 1.879505,-0.43562 1.421381,0.79459 6.069654,5.76011 6.069654,6.48391 0,0.91749 -5.756976,6.68741 -6.672407,6.68741 -0.364789,0 -1.962674,-1.29801 -3.55084,-2.88447 z m 19.941905,-0.0524 c -1.623477,-1.61529 -2.951779,-3.29417 -2.951779,-3.73085 0,-0.84581 5.915082,-6.85134 6.74816,-6.85134 0.271901,0 1.814734,1.29051 3.428524,2.86777 2.007143,1.96174 2.934147,3.18603 2.934147,3.87509 0,1.18586 -5.355247,6.77625 -6.491221,6.77625 -0.393832,0 -2.044354,-1.32161 -3.667831,-2.93692 z m 20.022883,-0.15664 c -1.70332,-1.70146 -3.096936,-3.35116 -3.096936,-3.66597 0,-0.7461 6.019958,-6.75955 6.766878,-6.75955 0.78522,0 6.766877,6.03254 6.766877,6.82444 0,0.76406 -6.021124,6.69467 -6.796832,6.69467 -0.298676,0 -1.936666,-1.39212 -3.639987,-3.09359 z m 20.12047,0.17998 c -1.604215,-1.60248 -2.916756,-3.24637 -2.916756,-3.65311 0,-0.99409 2.689581,-4.21621 4.785119,-5.73257 1.618665,-1.17129 1.745872,-1.19652 2.790461,-0.55342 1.732603,1.06668 5.535252,5.3429 5.535252,6.22463 0,0.99652 -5.569828,6.62808 -6.555416,6.62808 -0.397046,0 -2.034445,-1.31112 -3.63866,-2.91361 z m 20.087858,-0.11512 c -1.71979,-1.66579 -3.1269,-3.31548 -3.1269,-3.66597 0,-0.80163 5.98642,-6.82444 6.78319,-6.82444 0.72584,0 6.75058,6.07217 6.75058,6.8037 0,0.69722 -6.03746,6.71541 -6.73692,6.71541 -0.29867,0 -1.95015,-1.36292 -3.66995,-3.0287 z m 19.81503,-0.0976 -3.12968,-3.12629 0.64276,-1.24163 c 0.70538,-1.36257 5.54871,-6.0249 6.25877,-6.0249 0.77697,0 6.69771,6.02566 6.69771,6.81639 0,0.95057 -5.70264,6.70272 -6.64503,6.70272 -0.38218,0 -2.10322,-1.40683 -3.82453,-3.12629 z m 20.21766,0.18936 c -1.63968,-1.6153 -2.98121,-3.29418 -2.98121,-3.73084 0,-0.84581 5.91508,-6.85134 6.74816,-6.85134 0.27189,0 1.81474,1.2905 3.4285,2.86777 3.82368,3.73716 3.82448,4.16199 0.0144,7.83596 -1.60567,1.54846 -3.21405,2.81538 -3.5742,2.81538 -0.36016,0 -1.99636,-1.32161 -3.63603,-2.93693 z m 19.99345,-0.15664 c -1.70333,-1.70146 -3.09696,-3.35115 -3.09696,-3.66596 0,-0.3148 1.39363,-1.9645 3.09696,-3.66597 1.7033,-1.70148 3.35478,-3.09358 3.66993,-3.09358 0.31514,0 1.96662,1.3921 3.66995,3.09358 1.70331,1.70147 3.09693,3.35117 3.09693,3.66597 0,0.31481 -1.39362,1.9645 -3.09693,3.66596 -1.70333,1.70148 -3.35481,3.0936 -3.66995,3.0936 -0.31515,0 -1.96663,-1.39212 -3.66993,-3.0936 z m 20.12046,0.17999 c -1.60422,-1.60248 -2.91677,-3.24638 -2.91677,-3.65312 0,-0.99106 2.68729,-4.21454 4.76969,-5.72139 1.65417,-1.19698 1.70038,-1.20458 2.94526,-0.48419 1.74894,1.01206 5.39589,5.16246 5.39589,6.14079 0,0.999 -5.56787,6.63152 -6.55541,6.63152 -0.39705,0 -2.03444,-1.31112 -3.63866,-2.91361 z M 0.00965221,257.22752 c 0,-4.3515 0.15840901,-6.9708 0.4216461,-6.9708 0.78458029,0 6.76815699,6.01612 6.76815699,6.80496 0,0.76028 -6.0998819,7.13663 -6.8272047,7.13663 -0.19942592,0 -0.36259839,-3.13686 -0.36259839,-6.97079 z m 16.28407879,3.95977 c -2.028546,-1.92484 -3.173247,-3.33834 -3.173247,-3.91845 0,-1.15481 5.8291,-7.01212 6.978341,-7.01212 1.135254,0 6.978357,5.85657 6.978357,6.99443 0,1.04388 -5.890403,6.94716 -6.932002,6.94716 -0.373004,0 -2.106152,-1.35495 -3.851449,-3.01102 z m 19.949786,-0.32024 c -1.784923,-1.8322 -3.245307,-3.58928 -3.245307,-3.90464 0,-0.86755 6.244224,-6.70569 7.172107,-6.70569 0.941935,0 6.802605,5.59012 6.988908,6.66626 0.151854,0.87711 -5.998683,7.27533 -6.993671,7.27533 -0.372189,0 -2.137115,-1.49908 -3.922037,-3.33126 z m 20.182235,0.30255 c -1.937641,-1.87678 -3.126891,-3.36709 -3.126891,-3.91845 0,-1.13786 5.843101,-6.99443 6.97834,-6.99443 1.149256,0 6.978357,5.85731 6.978357,7.01212 0,1.05507 -5.955141,6.92947 -7.024713,6.92947 -0.373004,0 -2.085292,-1.36292 -3.805093,-3.02871 z m 20.028526,-0.0642 c -1.942853,-1.82281 -3.277708,-3.41501 -3.277708,-3.90961 0,-1.08473 5.887492,-6.93911 6.978357,-6.93911 1.135238,0 6.97834,5.85657 6.97834,6.99443 0,0.98804 -5.869797,6.95306 -6.827539,6.93831 -0.315556,-0.005 -2.048705,-1.39267 -3.85145,-3.08402 z m 20.078606,0.02 c -1.749853,-1.75968 -3.055663,-3.43419 -3.055663,-3.91842 0,-1.06482 5.86628,-6.95028 6.927649,-6.95028 1.0171,0 7.02905,5.83411 7.02905,6.82114 0,0.91116 -6.27436,7.1133 -7.2004,7.11751 -0.354737,0.002 -2.02003,-1.37984 -3.700636,-3.06992 z m 19.995316,0.0618 c -2.02857,-1.92483 -3.17325,-3.33833 -3.17325,-3.91844 0,-1.15482 5.8291,-7.01212 6.97834,-7.01212 1.13525,0 6.97836,5.85657 6.97836,6.99443 0,1.04388 -5.89041,6.94716 -6.93201,6.94716 -0.373,0 -2.10616,-1.35495 -3.85144,-3.01102 z m 19.92747,-0.3175 c -2.65432,-2.66708 -3.25717,-3.5029 -3.03376,-4.20604 0.36809,-1.15847 6.06244,-6.40702 6.95124,-6.40702 0.82409,0 7.23915,6.08923 7.23915,6.87146 0,0.75907 -6.43513,7.07013 -7.2091,7.07013 -0.34923,0 -2.12562,-1.49783 -3.94753,-3.32852 z m 20.20455,0.2998 c -1.93764,-1.87676 -3.1269,-3.36707 -3.1269,-3.91843 0,-1.13786 5.8431,-6.99443 6.97835,-6.99443 1.14923,0 6.97834,5.8573 6.97834,7.01212 0,1.05507 -5.95514,6.92947 -7.0247,6.92947 -0.37301,0 -2.08529,-1.36292 -3.80509,-3.02871 z m 20.02852,-0.15265 c -1.80273,-1.74647 -3.27771,-3.50845 -3.27771,-3.91549 0,-1.011 5.94763,-6.84479 6.97836,-6.84479 1.11637,0 6.97834,5.85562 6.97834,6.9708 0,0.99794 -5.81068,6.9724 -6.77684,6.96785 -0.34344,-0.002 -2.09941,-1.43188 -3.90215,-3.17837 z m 20.0786,0.10842 c -1.74985,-1.7597 -3.05566,-3.43422 -3.05566,-3.91845 0,-0.77987 5.73482,-6.95028 6.45964,-6.95028 0.16899,0 0.30724,3.13685 0.30724,6.9708 0,3.83394 -0.14754,6.97079 -0.32779,6.97079 -0.18027,0 -1.70282,-1.38278 -3.38343,-3.07286 z M 6.8145582,250.50608 c -3.2675256,-3.29327 -3.2454986,-3.7269 0.3641329,-7.16617 2.051069,-1.95427 2.6820671,-2.34049 3.2883539,-2.01271 1.457666,0.78807 5.613946,5.17311 5.613946,5.92293 0,0.86912 -5.12761,5.96368 -6.002359,5.96368 -0.3176182,0 -1.7864582,-1.21848 -3.2640738,-2.70773 z m 20.2427868,0.33085 c -3.495661,-3.33068 -3.515242,-3.56354 -0.552865,-6.5746 3.6971,-3.75786 3.558496,-3.73892 6.543826,-0.89448 3.852776,3.67095 3.838709,3.49061 0.538639,6.90519 -1.563198,1.61742 -3.110556,2.94077 -3.438579,2.94077 -0.328023,0 -1.718969,-1.0696 -3.091021,-2.37688 z m 19.731752,-0.56389 c -3.300071,-3.41458 -3.314138,-3.23424 0.538622,-6.90519 2.985347,-2.84444 2.846727,-2.86338 6.543843,0.89448 1.89055,1.92164 2.412741,2.7153 2.208807,3.35716 -0.342698,1.07857 -5.067026,5.59432 -5.852709,5.59432 -0.328024,0 -1.875381,-1.32335 -3.438563,-2.94077 z m 20.218377,0.33897 c -1.491842,-1.43099 -2.712439,-2.95141 -2.712439,-3.37871 0,-0.42731 1.244638,-2.0141 2.76586,-3.5262 2.710488,-2.69427 2.789069,-2.7373 3.925426,-2.15033 1.63676,0.8455 5.150771,4.70512 5.150771,5.65737 0,0.84752 -5.084626,5.99967 -5.921028,5.99967 -0.272877,0 -1.716748,-1.1708 -3.20859,-2.6018 z m 19.912589,-0.24987 c -1.5065,-1.56844 -2.74094,-3.0084 -2.743194,-3.19991 -0.0064,-0.4719 4.663731,-5.33378 5.606624,-5.83785 0.608812,-0.32548 1.246332,0.0668 3.320899,2.04347 3.904471,3.72019 3.892083,3.55894 0.532644,6.94065 -1.587399,1.59793 -3.131799,2.90531 -3.432025,2.90531 -0.300225,0 -1.778449,-1.28326 -3.284948,-2.85167 z M 107.1045,250.562 c -1.51936,-1.53133 -2.63109,-3.02037 -2.63109,-3.52405 0,-0.52169 1.10819,-1.9352 2.75739,-3.51715 l 2.75741,-2.64492 1.15471,0.74789 c 1.67787,1.08676 5.14796,4.92858 5.1612,5.71408 0.0128,0.80101 -5.16084,5.87596 -5.99102,5.87596 -0.31762,0 -1.76149,-1.19331 -3.2086,-2.65181 z m 20.18731,0.27493 c -3.49568,-3.33068 -3.51525,-3.56354 -0.55287,-6.5746 3.69711,-3.75786 3.55851,-3.73892 6.54383,-0.89448 3.85278,3.67095 3.83872,3.49061 0.53864,6.90519 -1.56319,1.61742 -3.11056,2.94077 -3.43857,2.94077 -0.32803,0 -1.71899,-1.0696 -3.09103,-2.37688 z m 19.73174,-0.56389 c -3.30007,-3.41458 -3.31413,-3.23424 0.53864,-6.90519 2.98533,-2.84444 2.84672,-2.86338 6.54383,0.89448 1.89057,1.92164 2.41275,2.7153 2.20882,3.35716 -0.3427,1.07857 -5.06703,5.59432 -5.85271,5.59432 -0.32803,0 -1.87538,-1.32335 -3.43858,-2.94077 z m 20.21839,0.33897 c -1.49185,-1.43099 -2.71244,-2.90762 -2.71244,-3.28141 0,-0.90522 3.36914,-4.69296 5.03037,-5.65535 l 1.3214,-0.76551 2.54432,2.42424 c 3.61633,3.44567 3.63865,3.87805 0.37034,7.1721 -1.47761,1.48925 -2.94645,2.70773 -3.26408,2.70773 -0.31759,0 -1.79808,-1.1708 -3.28991,-2.6018 z m 19.88203,-0.19337 c -1.4942,-1.53733 -2.71675,-2.99595 -2.71675,-3.24137 0,-0.24542 1.31522,-1.76001 2.92271,-3.36576 2.43721,-2.43458 3.05246,-2.85016 3.70384,-2.50193 1.16642,0.62356 5.72764,5.51479 5.56657,5.96929 -0.31671,0.8936 -5.50394,5.93494 -6.1067,5.93494 -0.3591,0 -1.87544,-1.25782 -3.36967,-2.79517 z M 0.00965221,237.16009 c 0,-3.48541 0.14785907,-6.33708 0.32853486,-6.33708 0.6069895,0 6.01541853,5.71734 6.01541853,6.359 0,0.62468 -5.44017482,6.31516 -6.03738159,6.31516 -0.16862328,0 -0.3065718,-2.85169 -0.3065718,-6.33708 z m 16.80013179,3.47479 c -1.563902,-1.57426 -2.843434,-3.14779 -2.843434,-3.49673 0,-0.34894 1.309584,-1.93259 2.910202,-3.51921 2.245779,-2.22616 3.101763,-2.82403 3.749306,-2.61874 1.03276,0.32743 6.028399,5.4621 6.028399,6.19615 0,0.74062 -5.637235,6.30082 -6.38812,6.30082 -0.337103,0 -1.892468,-1.28803 -3.456353,-2.86229 z m 19.953669,0.0469 c -1.60567,-1.54846 -2.919394,-3.12198 -2.919394,-3.49672 0,-0.85715 5.508238,-6.36206 6.365916,-6.36206 0.82451,0 6.321991,5.52967 6.321991,6.35901 0,0.77919 -5.513864,6.31515 -6.289957,6.31515 -0.307547,0 -1.872887,-1.26692 -3.478556,-2.81538 z m 19.845932,-0.0691 c -1.588183,-1.58646 -2.8876,-3.1238 -2.8876,-3.41634 0,-0.73406 4.995638,-5.86873 6.028398,-6.19616 0.647526,-0.20529 1.503511,0.39258 3.749307,2.61875 1.600602,1.58662 2.910202,3.18014 2.910202,3.54114 0,0.81351 -5.510205,6.33709 -6.321751,6.33709 -0.325034,0 -1.89039,-1.29801 -3.478556,-2.88448 z m 20.256484,0.0222 c -1.563886,-1.57426 -2.843434,-3.14779 -2.843434,-3.49673 0,-0.34894 1.309584,-1.93259 2.910203,-3.51921 2.245795,-2.22616 3.10178,-2.82403 3.749306,-2.61874 1.03276,0.32743 6.028398,5.4621 6.028398,6.19615 0,0.74062 -5.637234,6.30082 -6.388119,6.30082 -0.337102,0 -1.892469,-1.28803 -3.456354,-2.86229 z m 19.921877,-0.0222 c -1.588184,-1.58646 -2.887585,-3.1238 -2.887585,-3.41634 0,-0.73406 4.995639,-5.86873 6.028385,-6.19616 0.647544,-0.20529 1.503534,0.39258 3.749304,2.61875 1.60063,1.58662 2.91022,3.18014 2.91022,3.54114 0,0.81351 -5.51022,6.33709 -6.32176,6.33709 -0.32503,0 -1.890382,-1.29801 -3.478564,-2.88448 z m 20.262244,0.0661 c -1.56705,-1.55006 -2.84919,-3.13352 -2.84919,-3.51878 0,-0.86354 5.46075,-6.33708 6.32226,-6.33708 0.72843,0 6.36564,5.62731 6.36564,6.35445 0,0.69245 -5.709,6.31971 -6.41151,6.31971 -0.31791,0 -1.86016,-1.26823 -3.4272,-2.8183 z m 19.87197,-0.0439 c -1.56388,-1.57426 -2.84343,-3.14779 -2.84343,-3.49673 0,-0.82362 5.53567,-6.31514 6.36592,-6.31514 0.8245,0 6.32199,5.52967 6.32199,6.359 0,0.82364 -5.53567,6.31516 -6.36592,6.31516 -0.34932,0 -1.91465,-1.28803 -3.47856,-2.86229 z m 19.96844,-0.005 c -1.61377,-1.57727 -2.93415,-3.11463 -2.93415,-3.41635 0,-0.74632 4.98245,-5.88124 6.02838,-6.21284 0.64754,-0.20529 1.50352,0.39258 3.74932,2.61874 1.6006,1.58663 2.9102,3.18014 2.9102,3.54115 0,0.786 -5.49687,6.33708 -6.27519,6.33708 -0.29942,0 -1.86477,-1.2905 -3.47856,-2.86778 z m 20.20993,0.005 c -1.56389,-1.57426 -2.84343,-3.14779 -2.84343,-3.49673 0,-0.34894 1.30958,-1.93259 2.9102,-3.51921 2.24578,-2.22616 3.10178,-2.82403 3.74931,-2.61874 1.03276,0.32743 6.02839,5.4621 6.02839,6.19615 0,0.74062 -5.63724,6.30082 -6.38812,6.30082 -0.3371,0 -1.89246,-1.28803 -3.45635,-2.86229 z m 19.6389,-0.26969 c -1.43254,-1.49023 -2.60462,-2.93252 -2.60462,-3.2051 0,-0.70161 5.09136,-5.91461 5.77661,-5.91461 0.4475,0 0.56734,1.24942 0.56734,5.91461 0,4.66518 -0.11989,5.9146 -0.56734,5.9146 -0.31206,0 -1.73946,-1.21928 -3.17199,-2.7095 z M 7.5720441,230.52384 c -3.3759662,-3.1544 -3.3812092,-3.21432 -0.5336833,-6.08877 1.3534141,-1.36619 2.7707835,-2.48397 3.1497182,-2.48397 0.619617,0 5.469987,4.65697 5.469987,5.25188 0,0.48233 -4.956477,5.30991 -5.451684,5.30991 -0.2780716,0 -1.4635178,-0.89507 -2.6343379,-1.98905 z m 19.8090879,-0.45242 c -1.330237,-1.3428 -2.418607,-2.72761 -2.418607,-3.07734 0,-0.82173 4.270394,-5.04298 5.101698,-5.04298 0.683013,0 5.471568,4.62168 5.471568,5.28089 0,0.55213 -4.733904,5.2809 -5.286641,5.2809 -0.247173,0 -1.537782,-1.09865 -2.868018,-2.44147 z m 19.828061,-0.0501 c -1.357555,-1.37037 -2.398354,-2.69188 -2.312883,-2.93668 0.333793,-0.95599 4.723881,-5.1335 5.394729,-5.1335 0.862186,0 5.122461,4.21721 5.122461,5.07068 0,0.7007 -4.61202,5.49111 -5.286624,5.49111 -0.247172,0 -1.560129,-1.12122 -2.917683,-2.49161 z m 20.875926,0.94801 c -0.940735,-0.84899 -2.096386,-2.08503 -2.56808,-2.74676 l -0.857646,-1.20316 2.419789,-2.53413 c 1.330875,-1.39378 2.72983,-2.53414 3.108765,-2.53414 0.37895,0 1.796319,1.11778 3.149718,2.48397 2.076516,2.09614 2.393158,2.61014 2.027906,3.29187 -0.566467,1.05731 -4.563282,4.78595 -5.130166,4.78595 -0.241913,0 -1.209535,-0.69463 -2.150286,-1.5436 z m 19.352115,-0.89787 c -1.330236,-1.3428 -2.418607,-2.68496 -2.418607,-2.98259 0,-0.87411 4.277635,-5.13773 5.154623,-5.13773 0.954786,0 4.851312,3.52719 5.236784,4.74044 0.20769,0.65366 -0.297828,1.42262 -2.192726,3.33543 -1.354453,1.36726 -2.664884,2.48592 -2.912056,2.48592 -0.247172,0 -1.537782,-1.09865 -2.868018,-2.44147 z m 20.369276,0.45242 c -3.37596,-3.1544 -3.38121,-3.21432 -0.53368,-6.08877 1.35339,-1.36619 2.77078,-2.48397 3.14973,-2.48397 0.37894,0 1.77383,1.13611 3.09977,2.52472 1.96903,2.06209 2.33549,2.66529 1.99978,3.29185 -0.5602,1.04561 -4.55799,4.74522 -5.12766,4.74522 -0.25257,0 -1.41712,-0.89507 -2.58794,-1.98905 z m 19.77295,-0.44016 c -1.30813,-1.33607 -2.37932,-2.72088 -2.38044,-3.07735 -0.003,-0.82958 4.26022,-5.05523 5.09967,-5.05523 0.68302,0 5.47156,4.62168 5.47156,5.28089 0,0.57475 -4.74528,5.2809 -5.3248,5.2809 -0.26818,0 -1.55788,-1.09315 -2.86599,-2.42921 z m 19.91386,-0.0128 c -1.33023,-1.3428 -2.4186,-2.63201 -2.4186,-2.86491 0,-0.67108 4.8193,-5.25541 5.5248,-5.25541 0.80826,0 5.04845,4.25885 5.04845,5.07068 0,0.7007 -4.61202,5.49111 -5.28663,5.49111 -0.24717,0 -1.53777,-1.09865 -2.86802,-2.44147 z m 20.36927,0.45242 c -3.31868,-3.10088 -3.32171,-3.13482 -0.53997,-6.04802 1.32594,-1.38861 2.72084,-2.52472 3.09979,-2.52472 0.37893,0 1.79632,1.11778 3.14971,2.48397 2.0765,2.09614 2.39317,2.61014 2.02791,3.29187 -0.57672,1.07646 -4.568,4.78595 -5.14951,4.78595 -0.25254,0 -1.41711,-0.89507 -2.58793,-1.98905 z m 19.76505,-0.49687 c -1.89488,-1.91281 -2.40042,-2.68177 -2.19273,-3.33543 0.35736,-1.1247 4.25101,-4.74044 5.1048,-4.74044 0.85378,0 4.74745,3.61574 5.10478,4.74044 0.2077,0.65366 -0.29784,1.42262 -2.19272,3.33543 -1.35447,1.36726 -2.66489,2.48592 -2.91206,2.48592 -0.24717,0 -1.5576,-1.11866 -2.91207,-2.48592 z M 0.00965221,217.3039 c 0,-3.58658 0.15553175,-5.49214 0.44824476,-5.49214 0.89834383,0 5.04984283,4.33895 5.04984283,5.27787 0,0.5858 -0.928571,1.81534 -2.5061872,3.3185 -1.3783983,1.31335 -2.61547518,2.3879 -2.74904387,2.3879 -0.13363263,0 -0.24285652,-2.47146 -0.24285652,-5.49213 z m 16.98424479,2.78263 c -1.432539,-1.49023 -2.604623,-2.83746 -2.604623,-2.99387 0,-0.44651 5.163175,-5.70339 5.601733,-5.70339 0.572335,0 5.817383,5.11843 5.817383,5.67695 0,0.60054 -5.155965,5.72981 -5.759629,5.72981 -0.247637,0 -1.622327,-1.21927 -3.054864,-2.7095 z m 20.202215,0.3216 c -1.433721,-1.36606 -2.506186,-2.75089 -2.506186,-3.23614 0,-0.9055 4.593205,-5.78272 5.445976,-5.78272 0.882886,0 5.550215,4.84832 5.550215,5.76543 0,0.90142 -4.61955,5.64133 -5.498105,5.64133 -0.267137,0 -1.613501,-1.07455 -2.9919,-2.3879 z m 20.002631,-0.26391 c -1.4471,-1.4585 -2.631092,-2.8423 -2.631092,-3.07512 0,-0.49375 5.150179,-5.67983 5.640511,-5.67983 0.468385,0 4.921806,4.25987 5.414153,5.17885 0.334065,0.62351 -0.07114,1.26199 -2.218047,3.49538 -1.444702,1.50289 -2.839981,2.73253 -3.100596,2.73253 -0.260617,0 -1.657828,-1.19331 -3.104929,-2.65181 z m 20.175729,0.26391 c -1.572772,-1.49856 -2.50617,-2.73337 -2.50617,-3.31547 0,-0.99858 4.763395,-5.87908 5.496489,-5.6316 0.871857,0.29433 5.499686,5.15844 5.499686,5.7805 0,0.73538 -4.78392,5.55447 -5.513945,5.55447 -0.258425,0 -1.597662,-1.07455 -2.97606,-2.3879 z m 20.175843,0.25248 c -3.385206,-3.09053 -3.394541,-3.37281 -0.217473,-6.57489 1.471445,-1.48304 2.837728,-2.69645 3.036188,-2.69645 0.83414,0 5.37318,4.818 5.37318,5.70339 0,0.92158 -4.5548,5.70337 -5.43262,5.70337 -0.23114,0 -1.472806,-0.96094 -2.759275,-2.13542 z m 19.678045,-0.57408 c -1.43253,-1.49023 -2.60462,-2.83746 -2.60462,-2.99387 0,-0.44651 5.16317,-5.70339 5.60174,-5.70339 0.57233,0 5.81738,5.11843 5.81738,5.67695 0,0.60054 -5.15597,5.72981 -5.75963,5.72981 -0.24764,0 -1.62233,-1.21927 -3.05487,-2.7095 z m 20.2022,0.3216 c -1.4337,-1.36606 -2.50616,-2.75089 -2.50616,-3.23614 0,-0.9055 4.5932,-5.78272 5.44597,-5.78272 0.8306,0 5.5502,4.83516 5.5502,5.6861 0,0.86889 -4.63224,5.72066 -5.46182,5.72066 -0.2871,0 -1.64977,-1.07455 -3.02819,-2.3879 z m 20.00265,-0.26391 c -1.4471,-1.4585 -2.63111,-2.8423 -2.63111,-3.07512 0,-0.49375 5.15019,-5.67983 5.64052,-5.67983 0.46839,0 4.92181,4.25987 5.41416,5.17885 0.33405,0.62351 -0.0712,1.26199 -2.21805,3.49538 -1.44472,1.50289 -2.83998,2.73253 -3.1006,2.73253 -0.26061,0 -1.65782,-1.19331 -3.10492,-2.65181 z m 20.17573,0.26391 c -1.57278,-1.49856 -2.5062,-2.73337 -2.5062,-3.31547 0,-0.58298 0.93895,-1.82218 2.52747,-3.33574 2.92288,-2.78494 2.84093,-2.79434 6.29212,0.7217 1.7549,1.78787 2.20197,2.50235 1.98775,3.17663 -0.29972,0.94329 -4.68821,5.14078 -5.37472,5.14078 -0.23112,0 -1.54803,-1.07455 -2.92642,-2.3879 z m 19.68866,-0.27646 c -1.27443,-1.23304 -2.31713,-2.52663 -2.31713,-2.87465 0,-0.64803 4.54407,-5.44526 5.15791,-5.44526 0.1871,0 0.34018,2.37641 0.34018,5.2809 0,3.31218 -0.16101,5.2809 -0.43191,5.2809 -0.23755,0 -1.47463,-1.00885 -2.74905,-2.24189 z M 7.5007521,209.79051 c -1.0961551,-1.11168 -1.9930123,-2.30704 -1.9930123,-2.65633 0,-0.82068 3.8502821,-4.61681 4.6826572,-4.61681 0.349667,0 1.552184,0.9294 2.672236,2.06533 1.544912,1.56679 1.97105,2.27121 1.765438,2.91833 -0.329366,1.03661 -3.80821,4.31073 -4.580274,4.31073 -0.3047181,0 -1.4508737,-0.90957 -2.5470449,-2.02125 z M 27.465564,209.6217 c -1.144063,-1.20453 -2.080098,-2.35334 -2.080098,-2.55292 0,-0.68606 3.922613,-4.55141 4.618814,-4.55141 0.383186,0 1.714973,1.02996 2.959531,2.28881 l 2.262819,2.2888 -2.232896,2.35839 c -1.228077,1.29711 -2.506299,2.35839 -2.840477,2.35839 -0.334177,0 -1.543632,-0.98553 -2.687693,-2.19006 z m 20.213565,0.16881 c -1.096155,-1.11168 -1.993012,-2.30704 -1.993012,-2.65633 0,-0.83816 3.85869,-4.61681 4.714609,-4.61681 0.765287,0 4.58985,3.92402 4.58985,4.7092 0,0.62054 -4.20281,4.58519 -4.860631,4.58519 -0.251792,0 -1.35466,-0.90957 -2.450816,-2.02125 z m 20.217482,0.2924 c -2.755581,-2.53726 -2.79182,-3.05748 -0.383204,-5.50021 1.120054,-1.13593 2.336254,-2.06533 2.702657,-2.06533 0.843947,0 4.652238,3.82904 4.652238,4.67758 0,0.75764 -3.820455,4.61681 -4.570476,4.61681 -0.287981,0 -1.36852,-0.77799 -2.401215,-1.72885 z m 19.681049,-0.57303 c -2.053851,-2.07744 -2.217678,-2.3761 -1.680207,-3.06292 1.332986,-1.70338 3.812014,-3.92959 4.375829,-3.92959 0.774797,0 2.938336,1.82055 4.099724,3.4498 l 0.905889,1.27085 -2.260917,2.28687 c -1.243503,1.25776 -2.464227,2.28687 -2.712726,2.28687 -0.248516,0 -1.475921,-1.03586 -2.727592,-2.30188 z m 20.15756,0.28063 c -1.09616,-1.11168 -1.99301,-2.30704 -1.99301,-2.65633 0,-0.82068 3.85028,-4.61681 4.68265,-4.61681 0.34967,0 1.55217,0.9294 2.67223,2.06533 1.54492,1.56679 1.97104,2.27121 1.76543,2.91833 -0.32935,1.03661 -3.8082,4.31073 -4.58027,4.31073 -0.3047,0 -1.45086,-0.90957 -2.54703,-2.02125 z m 19.92161,-0.0897 c -1.1203,-1.16102 -2.03692,-2.30985 -2.03692,-2.55294 0,-0.74473 3.87718,-4.63049 4.62029,-4.63049 0.86752,0 4.6842,3.81128 4.6842,4.67758 0,0.79633 -3.83868,4.6168 -4.63879,4.6168 -0.32554,0 -1.50849,-0.94993 -2.62878,-2.11095 z m 20.25677,0.0897 c -1.09618,-1.11168 -1.99303,-2.30704 -1.99303,-2.65633 0,-0.3493 0.93041,-1.5505 2.06756,-2.66934 1.56849,-1.54324 2.27367,-1.96891 2.9215,-1.76352 0.92984,0.29479 4.31541,3.76946 4.31541,4.42897 0,0.65945 -4.047,4.68147 -4.71056,4.68147 -0.33433,0 -1.50472,-0.90957 -2.60088,-2.02125 z m 20.21747,0.2924 c -2.75558,-2.53726 -2.79181,-3.05748 -0.38321,-5.50021 1.12006,-1.13593 2.33627,-2.06533 2.70266,-2.06533 0.84396,0 4.65222,3.82904 4.65222,4.67758 0,0.75764 -3.82044,4.61681 -4.57047,4.61681 -0.28796,0 -1.3685,-0.77799 -2.4012,-1.72885 z m 19.6959,-0.55802 -2.26091,-2.28687 0.9059,-1.27085 c 1.11816,-1.56861 3.31564,-3.4498 4.02982,-3.4498 0.52543,0 3.30722,2.45608 4.45068,3.92959 0.53179,0.68526 0.36403,0.99019 -1.68517,3.06292 -1.25168,1.26602 -2.47908,2.30188 -2.72758,2.30188 -0.24852,0 -1.46924,-1.02911 -2.71274,-2.28687 z M 17.53594,199.92126 c -1.26545,-1.1955 -2.3008,-2.40446 -2.3008,-2.68659 0,-0.87858 3.402565,-4.42286 4.513378,-4.70135 0.868245,-0.21768 1.425361,0.0988 3.134948,1.78087 1.143486,1.12507 2.079059,2.35785 2.079059,2.7395 0,0.63353 -4.252491,5.04121 -4.8637,5.04121 -0.144183,0 -1.297451,-0.97813 -2.562885,-2.17364 z m 20.452649,0.37814 c -3.266982,-3.12616 -3.242062,-2.93782 -0.738512,-5.5821 1.218134,-1.28659 2.526727,-2.33926 2.907996,-2.33926 0.381285,0 1.709267,1.02771 2.951091,2.28379 l 2.257865,2.28378 -1.137732,1.49002 c -1.012556,1.32609 -3.674306,3.65927 -4.174581,3.65927 -0.104381,0 -1.034119,-0.80798 -2.066127,-1.7955 z m 19.630857,-0.43576 c -1.213275,-1.22719 -2.205946,-2.5176 -2.205946,-2.86757 0,-0.82011 3.848892,-4.61803 4.68002,-4.61803 0.811195,0 5.047381,4.01821 5.047381,4.78766 0,0.61161 -4.343316,4.9292 -4.95857,4.9292 -0.196325,0 -1.349626,-1.00406 -2.562885,-2.23126 z m 20.383851,0.46223 c -3.122336,-2.87495 -3.139519,-3.05294 -0.547878,-5.67435 1.23623,-1.25041 2.546806,-2.27348 2.912425,-2.27348 0.842077,0 4.650783,3.82947 4.650783,4.67615 0,0.63033 -4.182909,5.04071 -4.780723,5.04071 -0.172332,0 -1.177918,-0.79607 -2.234607,-1.76903 z m 19.79451,-0.46223 c -1.21326,-1.22719 -2.205931,-2.5176 -2.205931,-2.86757 0,-0.82076 3.849213,-4.61803 4.681204,-4.61803 0.34889,0 1.64578,1.02307 2.88199,2.27348 1.89918,1.92099 2.1799,2.39999 1.81054,3.0894 -0.5102,0.95225 -4.12035,4.35398 -4.62077,4.35398 -0.1876,0 -1.333758,-1.00406 -2.547033,-2.23126 z m 19.972583,0.0576 c -1.26543,-1.1955 -2.3008,-2.43186 -2.3008,-2.74746 0,-0.92439 3.98744,-4.79576 4.93955,-4.79576 0.93819,0 4.78785,3.81854 4.78785,4.74915 0,0.58869 -4.22816,4.96772 -4.79658,4.96772 -0.18106,0 -1.36457,-0.97814 -2.63002,-2.17365 z m 20.9138,0.77884 c -0.78853,-0.76714 -1.88392,-1.89594 -2.4342,-2.50845 l -1.0005,-1.11365 2.22492,-2.34998 c 1.2237,-1.29248 2.55034,-2.34998 2.94807,-2.34998 0.39776,0 1.71996,1.05283 2.93826,2.3396 l 2.2151,2.3396 -1.82037,1.99074 c -1.89495,2.0723 -2.94031,3.01062 -3.37957,3.0335 -0.14194,0.008 -0.90318,-0.61424 -1.69171,-1.38138 z m 19.16971,-0.83645 c -1.21326,-1.2272 -2.20593,-2.47108 -2.20593,-2.76418 0,-0.87302 3.85558,-4.72143 4.73023,-4.72143 0.92936,0 4.99716,3.88864 4.99716,4.77703 0,0.61912 -4.33709,4.93984 -4.95857,4.93984 -0.19632,0 -1.34962,-1.00407 -2.56289,-2.23126 z m 20.38386,0.46222 c -3.12233,-2.87495 -3.13952,-3.05294 -0.54788,-5.67435 1.23623,-1.25041 2.5468,-2.27348 2.91241,-2.27348 0.84209,0 4.65078,3.82948 4.65078,4.67615 0,0.63033 -4.18289,5.04072 -4.7807,5.04072 -0.17236,0 -1.17793,-0.79608 -2.23461,-1.76904 z M 0.00965221,197.02527 c 0,-2.55596 0.1492977,-4.6472 0.3316359,-4.6472 0.18240214,0 1.34310389,1.02307 2.57931759,2.27348 1.9114101,1.93335 2.1814727,2.39703 1.8051913,3.09936 -0.5489487,1.0246 -3.7213649,3.92156 -4.29443475,3.92156 -0.25478115,0 -0.42171004,-1.83967 -0.42171004,-4.6472 z M 197.81935,199.65121 c -1.09616,-1.11168 -1.99301,-2.30704 -1.99301,-2.65632 0,-0.62555 3.76022,-4.61682 4.34954,-4.61682 0.16649,0 0.30268,2.09124 0.30268,4.6472 0,2.55596 -0.14994,4.6472 -0.33309,4.6472 -0.1832,0 -1.22996,-0.90957 -2.32612,-2.02126 z M 8.2553449,189.78528 c -2.4192782,-2.12185 -2.5356792,-2.62992 -1.0022288,-4.37452 2.4732267,-2.8138 3.6429439,-2.73363 6.0467329,0.41448 l 1.077581,1.41127 -1.966941,1.93706 c -1.081817,1.06538 -2.119292,1.93706 -2.305483,1.93706 -0.1861909,0 -1.0185493,-0.59641 -1.8496611,-1.32535 z m 19.7557471,-0.48615 c -0.978876,-0.99632 -1.779777,-1.98721 -1.779777,-2.20199 0,-0.57214 3.474402,-4.01348 4.052026,-4.01348 0.471934,0 3.98366,3.53802 3.98366,4.01348 0,0.47547 -3.511726,4.01349 -3.98366,4.01349 -0.270845,0 -1.293359,-0.81518 -2.272249,-1.8115 z m 19.843533,-0.0801 c -0.960076,-1.04043 -1.745584,-2.03133 -1.745584,-2.20199 0,-0.47567 3.502342,-3.9333 3.984155,-3.9333 0.55766,0 4.051514,3.43205 4.051514,3.97984 0,0.59647 -3.454835,4.04713 -4.052025,4.04713 -0.270863,0 -1.277983,-0.85126 -2.23806,-1.89168 z m 20.089221,-0.0668 -1.93291,-1.95848 0.850597,-1.19327 c 0.467826,-0.65628 1.408946,-1.5904 2.091399,-2.07581 1.468856,-1.04479 2.162723,-0.7975 4.169993,1.48617 1.044157,1.18794 1.242512,1.6799 0.920018,2.28181 -0.48787,0.91062 -3.275341,3.41805 -3.799786,3.41805 -0.201519,0 -1.236213,-0.8813 -2.299311,-1.95847 z m 20.123347,0.14706 c -0.978891,-0.99632 -1.779776,-1.98721 -1.779776,-2.20199 0,-0.53294 3.455107,-4.01348 3.984155,-4.01348 0.55766,0 4.051514,3.43204 4.051514,3.97984 0,0.57676 -3.44526,4.04712 -4.017834,4.04712 -0.252065,0 -1.259184,-0.81517 -2.238059,-1.81149 z m 20.422617,0.48615 c -2.41928,-2.12185 -2.53567,-2.62992 -1.00224,-4.37452 2.33638,-2.65809 2.72363,-2.68686 5.0715,-0.37679 l 2.06603,2.03275 -1.9937,2.02196 c -1.09654,1.11207 -2.13697,2.02194 -2.31208,2.02194 -0.17511,0 -0.9984,-0.5964 -1.82951,-1.32534 z m 19.75575,-0.48615 c -0.97888,-0.99632 -1.77978,-1.98721 -1.77978,-2.20199 0,-0.53294 3.45511,-4.01348 3.98416,-4.01348 0.59711,0 4.05151,3.45111 4.05151,4.04764 0,0.53717 -3.57404,3.97932 -4.13179,3.97932 -0.18937,0 -1.14523,-0.81517 -2.1241,-1.81149 z m 19.99168,0.0679 c -1.04155,-0.95903 -1.89373,-1.96507 -1.89373,-2.23564 0,-0.577 3.44507,-4.04764 4.01783,-4.04764 0.53353,0 4.01784,3.45137 4.01784,3.97984 0,0.50898 -3.4129,4.04713 -3.90388,4.04713 -0.18937,0 -1.19651,-0.78466 -2.23806,-1.74369 z m 20.68591,0.69803 c -0.72376,-0.56996 -1.61654,-1.4946 -1.98397,-2.05477 -0.64747,-0.98708 -0.60775,-1.07872 1.28808,-2.9725 1.07588,-1.07472 2.10478,-1.95404 2.28645,-1.95404 0.49775,0 3.29397,2.54132 3.76635,3.42301 0.33488,0.62506 0.0635,1.13751 -1.42392,2.68812 -1.01074,1.05372 -2.01306,1.91373 -2.22738,1.91116 -0.21435,-0.003 -0.98187,-0.47102 -1.70561,-1.04098 z m 19.3785,-0.76583 c -0.97889,-0.99632 -1.77979,-1.98722 -1.77979,-2.20199 0,-0.53295 3.4551,-4.01349 3.98416,-4.01349 0.55767,0 4.05153,3.43205 4.05153,3.97984 0,0.57676 -3.44527,4.04713 -4.01784,4.04713 -0.25206,0 -1.25918,-0.81517 -2.23806,-1.81149 z M 18.214924,179.88225 c -2.495461,-2.25205 -2.545765,-2.89574 -0.397205,-5.0826 1.002564,-1.02043 2.013905,-1.85532 2.247425,-1.85532 0.713145,0 4.05153,3.50925 4.05153,4.25887 0,0.61422 -3.419843,4.19058 -4.007171,4.19058 -0.120845,0 -0.973393,-0.68018 -1.894579,-1.51153 z m 19.736804,-0.50973 c -1.096155,-1.11168 -1.993012,-2.16156 -1.993012,-2.33303 0,-0.577 3.485366,-4.09516 4.056981,-4.09516 0.70245,0 3.430793,2.35713 4.036122,3.48697 0.381635,0.71234 0.14658,1.14198 -1.586249,2.89937 -1.118854,1.1347 -2.143765,2.06311 -2.277558,2.06311 -0.133792,0 -1.140113,-0.90957 -2.236284,-2.02126 z m 20.201369,0.27757 c -1.041551,-0.95904 -1.89373,-2.06012 -1.89373,-2.44689 0,-0.72949 3.329625,-4.25887 4.017834,-4.25887 0.688207,0 4.017834,3.52938 4.017834,4.25887 0,0.62074 -3.422689,4.19058 -4.017834,4.19058 -0.126759,0 -1.082537,-0.78467 -2.124104,-1.74369 z m 19.955588,-0.29928 c -1.084375,-1.09974 -1.971593,-2.19107 -1.971593,-2.42515 0,-0.50327 3.470612,-3.98133 3.972789,-3.98133 0.472478,0 2.755374,1.94926 3.725011,3.18061 0.790717,1.00414 0.788879,1.01062 -0.772817,2.73738 -2.483584,2.74604 -2.705756,2.76795 -4.95339,0.48849 z m 20.469673,0.53749 c -2.798149,-2.52523 -2.8333,-2.78694 -0.67235,-5.00798 1.035988,-1.06479 2.085296,-1.93599 2.331772,-1.93599 0.63168,0 4.23563,3.38437 4.23563,3.97756 0,0.26959 -0.92992,1.40512 -2.06649,2.52338 l -2.06649,2.03322 z m 19.871032,-0.006 c -2.49546,-2.25205 -2.54577,-2.89575 -0.39721,-5.0826 1.00255,-1.02043 2.0139,-1.85532 2.24743,-1.85532 0.71315,0 4.05152,3.50924 4.05152,4.25887 0,0.61422 -3.41984,4.19057 -4.00717,4.19057 -0.12084,0 -0.97338,-0.68018 -1.89457,-1.51152 z m 19.69554,-0.55158 c -1.73283,-1.7574 -1.96789,-2.18703 -1.58625,-2.89937 0.52941,-0.98815 3.29829,-3.48697 3.8638,-3.48697 0.56553,0 3.33439,2.49882 3.86381,3.48697 0.38163,0.71234 0.14658,1.14197 -1.58625,2.89937 -1.11887,1.13469 -2.14377,2.0631 -2.27756,2.0631 -0.13379,0 -1.15869,-0.92841 -2.27755,-2.0631 z m 20.26438,0.33942 c -1.05351,-0.97004 -1.91548,-2.08013 -1.91548,-2.46689 0,-0.72949 3.32962,-4.25887 4.01784,-4.25887 0.57095,0 4.01783,3.46972 4.01783,4.04447 0,0.70519 -1.52801,2.54109 -2.96651,3.56429 l -1.23821,0.88073 z m 19.93383,-0.31929 c -1.08437,-1.09974 -1.9716,-2.19107 -1.9716,-2.42515 0,-0.54272 3.49216,-3.98356 4.03385,-3.97457 0.44097,0.008 2.47521,1.77911 3.71682,3.23731 0.75892,0.89128 0.74488,0.93738 -0.80938,2.65589 -2.50155,2.76593 -2.71989,2.78817 -4.96969,0.50652 z M 0.00965221,176.95781 c 0,-2.20742 0.1355508,-4.01348 0.30118493,-4.01348 0.46945653,0 3.92811196,3.5042 3.92811196,3.97984 0,0.50321 -3.41020556,4.04713 -3.89443206,4.04713 -0.18417646,0 -0.33486483,-1.80607 -0.33486483,-4.01349 z M 197.98794,179.11797 c -1.81265,-1.84496 -1.81758,-1.85837 -1.08957,-2.96824 0.68419,-1.04307 2.765,-2.78293 3.32829,-2.78293 0.13858,0 0.2519,1.71102 0.2519,3.80225 0,2.09124 -0.15074,3.80225 -0.33486,3.80225 -0.18418,0 -1.15428,-0.834 -2.15576,-1.85333 z M 8.086354,168.97313 c -1.0216663,-1.05294 -1.3200219,-1.66825 -1.1176867,-2.30504 0.2721086,-0.85644 2.5306119,-3.01815 3.1532677,-3.01815 0.467777,0 3.421474,3.02661 3.421474,3.50594 0,0.57684 -2.914071,3.25362 -3.542048,3.25362 -0.2867349,0 -1.1484896,-0.64636 -1.915007,-1.43637 z m 20.048156,-0.25351 -1.65193,-1.6899 1.65193,-1.6899 c 0.908558,-0.92943 1.796991,-1.68988 1.974294,-1.68988 0.678313,0 3.31233,2.65655 3.31233,3.34067 0,0.7614 -2.496691,3.41889 -3.212009,3.41889 -0.232483,0 -1.166057,-0.76045 -2.074615,-1.68988 z m 19.922867,0.0461 -1.606757,-1.6437 1.570135,-1.73609 c 0.863593,-0.95485 1.794865,-1.73608 2.0695,-1.73608 0.274649,0 1.242719,0.76045 2.151277,1.68989 l 1.651914,1.68989 -1.651914,1.6899 c -0.908558,0.92943 -1.860147,1.68988 -2.114656,1.68988 -0.25451,0 -1.185766,-0.73966 -2.069499,-1.64369 z m 20.285608,0.22077 c -0.830696,-0.7826 -1.510368,-1.59952 -1.510368,-1.81539 0,-0.21585 0.746073,-1.12019 1.657956,-2.00966 l 1.657939,-1.61718 1.211997,0.86208 c 0.666597,0.47416 1.477072,1.35685 1.801051,1.96157 0.553041,1.03224 0.501793,1.1894 -0.838257,2.57048 -0.785028,0.80906 -1.661904,1.47102 -1.948622,1.47102 -0.286735,0 -1.200984,-0.64031 -2.031696,-1.42292 z m 19.847611,-0.26696 -1.65193,-1.6899 1.65193,-1.68989 c 0.908557,-0.92944 1.860146,-1.68989 2.114656,-1.68989 0.254493,0 1.206098,0.76045 2.11464,1.68989 l 1.65193,1.68989 -1.65193,1.6899 c -0.908542,0.92943 -1.860147,1.68988 -2.11464,1.68988 -0.25451,0 -1.206099,-0.76045 -2.114656,-1.68988 z m 20.073384,0.19495 c -1.38312,-1.42547 -1.42137,-1.54629 -0.82309,-2.59943 0.34508,-0.60746 1.15166,-1.49338 1.79237,-1.96873 l 1.16495,-0.86427 1.68983,1.64829 c 0.92941,0.90658 1.68983,1.7863 1.68983,1.95495 0,0.58232 -2.85069,3.32412 -3.45614,3.32412 -0.33397,0 -1.25997,-0.67272 -2.05775,-1.49493 z m 20.105,-0.19495 -1.65193,-1.6899 1.65193,-1.68989 c 0.90854,-0.92944 1.79699,-1.68989 1.9743,-1.68989 0.67831,0 3.31232,2.65655 3.31232,3.34068 0,0.76139 -2.49669,3.41888 -3.212,3.41888 -0.23249,0 -1.16608,-0.76045 -2.07462,-1.68988 z m 20.17215,0.29674 c -0.74347,-0.76623 -1.35178,-1.67951 -1.35178,-2.0295 0,-0.7002 2.53802,-3.33692 3.21202,-3.33692 0.23249,0 1.16608,0.76045 2.07463,1.68989 l 1.65191,1.68989 -1.65191,1.6899 c -0.90855,0.92943 -1.86144,1.68988 -2.11752,1.68988 -0.25609,0 -1.07389,-0.62691 -1.81735,-1.39314 z m 19.9639,-0.0433 c -0.79087,-0.79003 -1.43795,-1.60695 -1.43795,-1.81539 0,-0.20844 0.76042,-1.12071 1.68983,-2.02729 l 1.68983,-1.64828 1.09177,0.82321 c 0.60047,0.45279 1.40407,1.34176 1.78579,1.97554 0.67941,1.12802 0.66362,1.18365 -0.74991,2.64046 -0.79416,0.81847 -1.71112,1.48815 -2.03766,1.48815 -0.32655,0 -1.24082,-0.64638 -2.0317,-1.4364 z m 19.92002,-0.25349 -1.65193,-1.6899 1.65193,-1.68989 c 0.90857,-0.92943 1.86015,-1.68988 2.11466,-1.68988 0.2545,0 1.20608,0.76045 2.11464,1.68988 l 1.65193,1.68989 -1.65193,1.6899 c -0.90856,0.92944 -1.86014,1.68989 -2.11464,1.68989 -0.25451,0 -1.20609,-0.76045 -2.11466,-1.68989 z m -170.188051,-9.88601 -1.78497,-1.81678 1.128891,-1.34016 c 1.815422,-2.15518 2.46947,-2.32996 3.977058,-1.0628 2.123352,1.78475 2.295731,2.44425 1.031289,3.94532 -1.918875,2.278 -2.35665,2.3056 -4.352268,0.27442 z m 40.156349,0.28786 c -0.941087,-0.94007 -1.711057,-1.88309 -1.711057,-2.09563 0,-0.21255 0.751028,-1.119 1.668938,-2.01435 1.61713,-1.57739 1.701161,-1.60678 2.708074,-0.94776 0.57152,0.37409 1.42923,1.22739 1.906008,1.89625 l 0.866886,1.21609 -1.863903,1.82729 -1.863904,1.8273 z m 20.059216,-0.12966 c -1.471653,-1.50546 -1.572724,-1.74939 -1.085669,-2.62006 0.295367,-0.52803 1.104484,-1.41335 1.798,-1.96735 l 1.260974,-1.00731 1.661983,1.62113 c 0.914089,0.89162 1.661984,1.75808 1.661984,1.92545 0,0.48083 -2.129474,2.88217 -2.940222,3.31559 -0.575066,0.30744 -1.086259,0.0326 -2.35705,-1.26745 z m 20.118074,0.12854 c -0.94048,-0.93946 -1.70997,-1.882 -1.70997,-2.09455 0,-0.21254 0.761274,-1.12899 1.691715,-2.03656 l 1.691737,-1.65014 1.69171,1.65014 c 0.93044,0.90757 1.69172,1.85813 1.69172,2.11235 0,0.25423 -0.75306,1.19677 -1.67347,2.09456 l -1.67347,1.63233 z m 19.908682,-0.27876 -1.81041,-1.84269 1.69245,-1.77721 c 1.91301,-2.00882 2.45997,-1.95481 4.47913,0.44222 l 1.11816,1.32742 -0.99638,1.29062 c -0.54799,0.70985 -1.37349,1.54076 -1.83445,1.84647 -0.7531,0.49951 -1.02157,0.36907 -2.6485,-1.28683 z m 40.12145,0.25283 c -1.96344,-1.96131 -1.90695,-2.49801 0.47352,-4.49886 1.1836,-0.99487 1.42685,-1.05476 2.20035,-0.54173 0.4783,0.31723 1.30764,1.14415 1.84299,1.83758 l 0.97334,1.26079 -1.87607,1.83921 -1.87605,1.83921 z m 20.16281,-0.0243 c -0.8504,-0.86994 -1.53985,-1.76381 -1.53211,-1.98637 0.0163,-0.46794 1.08253,-1.73683 2.44455,-2.90909 l 0.94639,-0.81455 1.68093,1.6396 c 0.92452,0.9018 1.68094,1.77657 1.68094,1.94394 0,0.48083 -2.12945,2.88218 -2.9402,3.3156 -0.57318,0.30643 -1.07364,0.0455 -2.2805,-1.18913 z M 0.00965221,157.10161 c 0,-1.74269 0.15297419,-3.16853 0.33996397,-3.16853 0.48357107,0 3.04346712,2.70115 3.04346712,3.21139 0,0.47316 -2.61916755,3.12569 -3.08637024,3.12569 -0.16339625,0 -0.29706085,-1.42585 -0.29706085,-3.16855 z m 38.14668079,1.77541 c -0.743467,-0.76623 -1.351752,-1.58316 -1.351752,-1.81539 0,-0.23223 0.761275,-1.16479 1.691716,-2.07237 l 1.691715,-1.65014 1.691732,1.65014 c 0.930441,0.90758 1.691716,1.85943 1.691716,2.11523 0,0.68497 -2.684977,3.16567 -3.426351,3.16567 -0.350354,0 -1.245309,-0.62691 -1.988776,-1.39314 z m 100.234467,0 c -0.74346,-0.76623 -1.35176,-1.58316 -1.35176,-1.81539 0,-0.23223 0.76126,-1.16479 1.69172,-2.07237 l 1.69172,-1.65014 1.69172,1.65014 c 0.93046,0.90758 1.69173,1.85943 1.69173,2.11523 0,0.68497 -2.68498,3.16567 -3.42635,3.16567 -0.35035,0 -1.24531,-0.62691 -1.98878,-1.39314 z m 60.05608,0 c -0.74347,-0.76623 -1.35176,-1.58445 -1.35176,-1.81825 0,-0.47316 2.61917,-3.12569 3.08638,-3.12569 0.16338,0 0.29706,1.42584 0.29706,3.16853 0,1.7427 -0.15298,3.16855 -0.33997,3.16855 -0.18697,0 -0.94825,-0.62691 -1.69171,-1.39314 z M 8.5093428,148.35145 l -1.3280782,-1.35691 1.479374,-1.47776 1.4793584,-1.47775 1.278781,1.2238 c 0.703329,0.67311 1.278782,1.43786 1.278782,1.69945 0,0.47815 -2.160741,2.74608 -2.616275,2.74608 -0.1341121,0 -0.8415024,-0.61061 -1.5719422,-1.35691 z m 20.1272162,0.17199 c -1.434073,-1.49523 -1.422371,-1.76313 0.142264,-3.26061 l 1.278782,-1.2238 1.558961,1.55727 1.558963,1.55727 -1.225152,1.2774 c -1.510881,1.57531 -1.881758,1.58566 -3.313882,0.0924 z m 19.789027,-0.0925 -1.225152,-1.27739 1.558977,-1.55728 1.558962,-1.55727 1.278765,1.22381 c 1.577026,1.50924 1.587383,1.87974 0.09255,3.31031 -1.496846,1.43252 -1.765054,1.42083 -3.264137,-0.14211 z m 20.389349,0.0925 c -1.434073,-1.49523 -1.422387,-1.76313 0.142264,-3.26061 l 1.278782,-1.2238 1.496318,1.49469 1.496333,1.49472 -1.253077,1.33995 c -0.689184,0.73698 -1.426576,1.33997 -1.638646,1.33997 -0.212071,0 -0.896986,-0.53321 -1.522038,-1.18492 z m 19.816696,-0.0635 c -1.152805,-1.20197 -1.171539,-1.2881 -0.502065,-2.30874 1.434616,-2.18712 3.287921,-2.08819 4.536428,0.24213 0.38771,0.72368 0.270797,1.06783 -0.710252,2.0907 -1.467704,1.5303 -1.835833,1.52764 -3.324111,-0.0241 z m 19.961809,-0.11832 -1.16659,-1.35807 1.47581,-1.47421 1.47582,-1.47421 1.48955,1.44217 1.48954,1.44218 -1.35306,1.39448 c -0.74419,0.76698 -1.55364,1.39254 -1.79877,1.39011 -0.24514,-0.003 -0.97067,-0.61551 -1.6123,-1.36245 z m 20.27759,0.18193 c -1.43407,-1.49522 -1.42237,-1.76313 0.14227,-3.2606 l 1.27877,-1.22381 1.55897,1.55727 1.55896,1.55728 -1.22516,1.27739 c -1.51088,1.57532 -1.88177,1.58567 -3.31388,0.0925 z m 19.78903,-0.0925 -1.22516,-1.2774 1.55896,-1.55727 1.55897,-1.55727 1.27877,1.2238 c 1.57703,1.50925 1.58739,1.87974 0.0926,3.31031 -1.49686,1.43252 -1.76505,1.42083 -3.26413,-0.14211 z m 20.18039,-0.1172 -1.35307,-1.39449 1.48956,-1.44218 1.48955,-1.44216 1.50534,1.50372 1.50534,1.50371 -1.33438,1.33295 c -0.73393,0.73313 -1.47275,1.33296 -1.64183,1.33296 -0.16909,0 -0.91632,-0.62753 -1.66051,-1.39451 z m 20.02564,0.14594 c -1.15281,-1.20197 -1.17154,-1.28809 -0.50206,-2.30873 1.43461,-2.18713 3.28792,-2.08819 4.53642,0.24213 0.38771,0.72367 0.2708,1.06782 -0.71025,2.09069 -1.4677,1.53031 -1.83585,1.52764 -3.32411,-0.0241 z M 0.00965221,137.0342 c 0,-1.39416 0.15713024,-2.53482 0.34920316,-2.53482 0.57788115,0 2.18837813,1.90901 2.18837813,2.59401 0,0.62689 -1.67849614,2.47564 -2.24764964,2.47564 -0.15952795,0 -0.28993165,-1.14068 -0.28993165,-2.53483 z m 18.39745679,1.26742 -1.215577,-1.26742 1.215577,-1.26741 c 0.668563,-0.69709 1.429837,-1.26741 1.691716,-1.26741 0.261878,0 1.023152,0.57032 1.691731,1.26741 l 1.215577,1.26741 -1.215577,1.26742 c -0.668579,0.69707 -1.429853,1.26741 -1.691731,1.26741 -0.261879,0 -1.023153,-0.57034 -1.691716,-1.26741 z m 20.16291,0.28962 c -1.175536,-1.24995 -1.161006,-2.02814 0.0593,-3.17329 1.251303,-1.17426 2.030337,-1.15974 3.176732,0.0592 1.175536,1.24995 1.161006,2.02814 -0.0593,3.1733 -1.25132,1.17426 -2.030353,1.15974 -3.176732,-0.0592 z m 20.015466,-0.28962 -1.215577,-1.26742 1.215577,-1.26741 c 0.668563,-0.69709 1.429837,-1.26741 1.691716,-1.26741 0.261878,0 1.023152,0.57032 1.691716,1.26741 l 1.215577,1.26741 -1.215577,1.26742 c -0.668564,0.69707 -1.429838,1.26741 -1.691716,1.26741 -0.261879,0 -1.023153,-0.57034 -1.691716,-1.26741 z m 20.16291,0.28962 c -0.505774,-0.53779 -0.919587,-1.26511 -0.919587,-1.61625 0,-0.75128 1.726898,-2.47561 2.479301,-2.47561 0.540221,0 2.595861,2.00729 2.595861,2.53482 0,0.55779 -2.070857,2.53483 -2.655133,2.53483 -0.319471,0 -0.994683,-0.44001 -1.500442,-0.97779 z m 20.549311,0.52438 c -1.458339,-0.84871 -1.710019,-1.99551 -0.737378,-3.35998 1.07595,-1.50939 2.065642,-1.59287 3.301782,-0.27849 1.17554,1.24995 1.16101,2.02814 -0.0593,3.17329 -1.0896,1.02251 -1.43672,1.08697 -2.505136,0.46518 z m 19.343864,-0.814 -1.21558,-1.26742 1.21558,-1.26741 c 0.66856,-0.69709 1.42984,-1.26741 1.69172,-1.26741 0.26188,0 1.02315,0.57032 1.69174,1.26741 l 1.21557,1.26741 -1.21557,1.26742 c -0.66859,0.69707 -1.42986,1.26741 -1.69174,1.26741 -0.26188,0 -1.02316,-0.57034 -1.69172,-1.26741 z m 20.16292,0.28962 c -1.17555,-1.24995 -1.16101,-2.02814 0.0593,-3.17329 1.25129,-1.17426 2.03033,-1.15974 3.17671,0.0592 1.13957,1.21169 1.14488,1.57947 0.0429,2.97873 -1.08014,1.3717 -2.07755,1.41287 -3.27901,0.13541 z m 20.01546,-0.28962 -1.21557,-1.26742 1.21557,-1.26741 c 0.66857,-0.69709 1.42983,-1.26741 1.69172,-1.26741 0.26187,0 1.02314,0.57032 1.69171,1.26741 l 1.21558,1.26741 -1.21558,1.26742 c -0.66857,0.69707 -1.42984,1.26741 -1.69171,1.26741 -0.26189,0 -1.02315,-0.57034 -1.69172,-1.26741 z m 20.16288,0.28962 c -0.50575,-0.53779 -0.91956,-1.26511 -0.91956,-1.61625 0,-0.75128 1.7269,-2.47561 2.47929,-2.47561 0.54023,0 2.59587,2.00729 2.59587,2.53482 0,0.55779 -2.07086,2.53483 -2.65513,2.53483 -0.31948,0 -0.99469,-0.44001 -1.50047,-0.97779 z m 19.59739,-0.55277 c -0.69244,-1.05565 -0.68852,-1.15931 0.0828,-2.19134 1.3937,-1.86466 1.81551,-1.64613 1.81551,0.94063 0,2.67263 -0.67426,3.11688 -1.89834,1.25071 z M 8.8803332,127.93952 l -1.0041629,-1.06771 1.0650009,-1.06385 1.0650008,-1.06384 1.144302,1.14306 1.144301,1.14304 -0.929658,0.98852 c -1.158624,1.23195 -1.254548,1.22888 -2.4847838,-0.0792 z m 19.9599198,0.0873 -0.921953,-0.98032 0.981224,-0.92081 c 1.213452,-1.13873 1.644849,-1.15049 2.622429,-0.0714 0.74708,0.82462 0.740686,0.88001 -0.219631,1.90113 -1.213004,1.28977 -1.313516,1.29269 -2.462069,0.0714 z m 20.863697,0.65698 c -0.232609,-0.1707 -0.688767,-0.64864 -1.013673,-1.06209 -0.51893,-0.66033 -0.470911,-0.87912 0.395127,-1.79998 l 0.98586,-1.04824 1.19053,1.13937 1.190545,1.13937 -0.919252,0.97745 c -0.994636,1.05761 -1.186085,1.12607 -1.829137,0.65412 z m 19.323311,-0.6478 c -0.842237,-0.89555 -0.862554,-1.04348 -0.261207,-1.90111 0.812329,-1.1585 1.929936,-1.18921 2.934275,-0.0806 0.74708,0.82463 0.740686,0.88002 -0.219631,1.90113 -1.211853,1.28856 -1.314251,1.29191 -2.453437,0.0806 z m 20.074738,0.19854 c -0.930633,-1.02723 -0.884645,-1.44162 0.281443,-2.53591 l 0.981369,-0.92096 0.92181,0.98016 c 1.123168,1.19427 1.1494,1.64519 0.148338,2.55012 -0.991183,0.89604 -1.468312,0.88103 -2.332992,-0.0734 z m 20.027811,-0.27916 c -0.96031,-1.02111 -0.96671,-1.0765 -0.21963,-1.90113 0.98838,-1.09097 1.66613,-1.0725 2.73598,0.0746 l 0.86173,0.92397 -0.91899,0.97716 c -1.14534,1.21782 -1.24649,1.21476 -2.45909,-0.0746 z m 19.9476,0.0743 -0.91925,-0.97744 1.19054,-1.13938 1.19055,-1.13937 0.93573,0.99496 c 1.02617,1.09112 0.88391,2.15285 -0.37892,2.82795 -1.01398,0.54208 -0.96219,0.55663 -2.01865,-0.56672 z m 20.75042,0.69604 c -0.29342,-0.118 -0.73795,-0.59629 -0.98782,-1.06268 -0.36772,-0.68631 -0.27168,-1.0422 0.50373,-1.86668 l 0.95805,-1.01869 0.98136,0.92096 c 1.18348,1.11063 1.22934,1.68598 0.20794,2.60932 -0.82289,0.74391 -0.84135,0.74854 -1.66326,0.41777 z m 19.42822,-0.69573 -0.91899,-0.97716 0.86175,-0.92398 c 1.06984,-1.1471 1.74758,-1.16557 2.73598,-0.0746 0.74708,0.82462 0.74067,0.88001 -0.21965,1.90113 -1.2126,1.28935 -1.31375,1.29242 -2.45909,0.0746 z m 20.08041,0.20456 c -0.93064,-1.02724 -0.88465,-1.44163 0.28145,-2.53592 l 0.98136,-0.92096 0.92181,0.98016 c 1.12317,1.19427 1.1494,1.64519 0.14834,2.55012 -0.9912,0.89604 -1.46831,0.88103 -2.33301,-0.0735 z M 0.00965221,116.96678 c 0,-2.15713 0.42620177,-2.39258 1.46479579,-0.80922 0.6743014,1.028 0.6733103,1.13925 -0.016944,1.90112 -1.11874168,1.23486 -1.44789995,0.98663 -1.44789995,-1.0919 z m 18.79798679,1.03145 c -0.843883,-0.93148 -0.589038,-1.82152 0.766038,-2.67535 0.512904,-0.32318 0.907822,-0.23341 1.557715,0.35409 1.073681,0.97062 1.097738,1.58725 0.09719,2.49174 -1.011133,0.91409 -1.467466,0.88195 -2.420941,-0.17048 z m 20.182939,-0.11066 -0.921953,-0.98032 1.059694,-0.99445 1.059693,-0.99446 1.059694,0.99446 1.059694,0.99445 -0.921952,0.98032 c -0.50707,0.53917 -1.045915,0.98031 -1.197436,0.98031 -0.151535,0 -0.690365,-0.44114 -1.197434,-0.98031 z m 19.995437,0.11066 c -0.843899,-0.93148 -0.589038,-1.82152 0.766022,-2.67535 0.51292,-0.32318 0.907838,-0.23341 1.557731,0.35409 1.073681,0.97062 1.097739,1.58725 0.09719,2.49174 -1.011149,0.91409 -1.467482,0.88195 -2.420941,-0.17048 z m 19.955476,0.0859 c -0.821825,-0.90711 -0.546919,-1.99398 0.668691,-2.64386 0.670993,-0.35872 1.0373,-0.25803 1.855799,0.51008 l 1.019796,0.957 -0.921953,0.98032 c -1.114665,1.18521 -1.687672,1.22815 -2.622333,0.19646 z m 20.105174,-0.19646 -0.921954,-0.98032 0.993949,-0.93276 c 1.07889,-1.01246 1.92355,-0.91382 2.69136,0.31432 0.38425,0.6146 0.3542,0.97861 -0.13875,1.68172 -0.80966,1.15471 -1.4805,1.1335 -2.624541,-0.083 z m 19.995435,0.11065 c -0.58815,-0.64919 -0.67802,-1.04368 -0.35449,-1.55604 0.85477,-1.35359 1.74577,-1.60818 2.67825,-0.76521 1.07367,0.97061 1.09773,1.58724 0.0972,2.49174 -1.01115,0.91408 -1.46748,0.88194 -2.42095,-0.17049 z m 20.18295,-0.11065 -0.92195,-0.98032 1.05969,-0.99446 1.05969,-0.99445 1.05969,0.99445 1.0597,0.99446 -0.92196,0.98032 c -0.50706,0.53917 -1.04591,0.9803 -1.19743,0.9803 -0.15153,0 -0.69036,-0.44113 -1.19743,-0.9803 z m 19.99542,0.11065 c -0.58815,-0.64919 -0.67802,-1.04368 -0.35448,-1.55604 0.85475,-1.35359 1.74576,-1.60818 2.67824,-0.76521 1.07368,0.97061 1.09773,1.58724 0.0972,2.49174 -1.01116,0.91408 -1.46748,0.88194 -2.42095,-0.17049 z m 19.95093,-0.031 c -0.56166,-0.801 -0.55895,-1.01142 0.0246,-1.90111 0.82428,-1.25666 1.43486,-1.26138 2.60223,-0.0201 l 0.92195,0.9803 -0.98122,0.92082 c -1.22982,1.15409 -1.76953,1.15832 -2.56763,0.0201 z m 19.88903,-0.29814 c -0.65726,-0.72548 -0.65244,-0.8224 0.0736,-1.47865 1.12045,-1.01289 1.34465,-0.88345 1.34465,0.77637 0,1.65702 -0.38184,1.84611 -1.41813,0.70228 z M 9.3185874,107.67776 c -0.6206723,-0.74704 -0.2771438,-1.9065 0.5648534,-1.9065 0.3277362,0 0.8328062,0.28517 1.1223872,0.63372 0.420047,0.50558 0.420047,0.76182 0,1.26742 -0.661945,0.79672 -1.0287958,0.79789 -1.6872406,0.005 z m 19.8732506,-0.005 c -0.420047,-0.50559 -0.420047,-0.76184 0,-1.26741 1.047785,-1.26116 2.839022,-0.29587 2.079969,1.12089 -0.505837,0.94413 -1.366905,1.00479 -2.079969,0.14659 z m 19.877709,0 c -0.420047,-0.50559 -0.420047,-0.76184 0,-1.26741 0.289581,-0.34856 0.765383,-0.63372 1.057329,-0.63372 0.291962,0 0.767748,0.28516 1.057328,0.63372 0.420048,0.50557 0.420048,0.76182 0,1.26741 -0.28958,0.34854 -0.765366,0.6337 -1.057328,0.6337 -0.291946,0 -0.767748,-0.28516 -1.057329,-0.6337 z m 20.300651,0 c -0.420047,-0.50559 -0.420047,-0.76184 0,-1.26741 0.690046,-0.83057 1.53492,-0.80631 1.86523,0.0535 0.25881,0.67368 -0.388877,1.84757 -1.019364,1.84757 -0.175657,0 -0.556286,-0.28516 -0.845866,-0.6337 z m 19.877725,0 c -0.420047,-0.50559 -0.420047,-0.76184 0,-1.26741 0.289581,-0.34856 0.765367,-0.63372 1.057329,-0.63372 0.291946,0 0.767748,0.28516 1.057328,0.63372 0.420048,0.50557 0.420048,0.76182 0,1.26741 -0.28958,0.34854 -0.765382,0.6337 -1.057328,0.6337 -0.291962,0 -0.767748,-0.28516 -1.057329,-0.6337 z m 20.406387,0.3539 c -0.75355,-0.30373 -0.65484,-1.8107 0.13858,-2.11482 0.36696,-0.14067 0.96914,0.0458 1.33819,0.41453 0.55309,0.55247 0.57539,0.78536 0.12692,1.32519 -0.56929,0.68521 -0.73696,0.72442 -1.6036,0.3751 z m 19.77198,-0.3539 c -0.42004,-0.50559 -0.42004,-0.76184 0,-1.26741 1.0478,-1.26116 2.83904,-0.29587 2.07999,1.12089 -0.50584,0.94413 -1.3669,1.00479 -2.07999,0.14659 z m 19.87773,0 c -0.42005,-0.50559 -0.42005,-0.76184 0,-1.26741 0.28958,-0.34856 0.76536,-0.63372 1.05732,-0.63372 0.29195,0 0.76775,0.28516 1.05734,0.63372 0.42004,0.50557 0.42004,0.76182 0,1.26741 -0.28959,0.34854 -0.76539,0.6337 -1.05734,0.6337 -0.29196,0 -0.76774,-0.28516 -1.05732,-0.6337 z m 20.34512,0.0535 c -0.7046,-0.84809 -0.1039,-2.02326 0.95663,-1.87138 1.03849,0.14865 1.46086,1.54941 0.62649,2.0776 -0.78394,0.49627 -1.02563,0.46478 -1.58312,-0.20622 z m 19.83324,-0.0535 c -0.42005,-0.50559 -0.42005,-0.76184 0,-1.26741 0.28957,-0.34856 0.76537,-0.63372 1.05733,-0.63372 0.29195,0 0.76775,0.28516 1.05731,0.63372 0.42006,0.50557 0.42006,0.76182 0,1.26741 -0.28956,0.34854 -0.76536,0.6337 -1.05731,0.6337 -0.29196,0 -0.76776,-0.28516 -1.05733,-0.6337 z M 19.6712,97.7367 c -0.386959,-0.625429 -0.01982,-0.945129 0.883319,-0.769072 0.660713,0.128857 0.667731,0.197294 0.07081,0.691566 -0.47561,0.393773 -0.744858,0.415649 -0.954066,0.07744 z m 19.961725,0.157279 c -0.551553,-0.55094 -0.288221,-0.994564 0.590334,-0.994564 0.492187,0 0.807214,0.221452 0.713704,0.501681 -0.206028,0.617382 -0.912202,0.884293 -1.304038,0.492883 z m 19.796572,-0.152648 c -0.144822,-0.234003 0.04252,-0.542654 0.41621,-0.685898 0.809757,-0.310407 1.261054,0.03162 0.87181,0.660765 -0.351186,0.567627 -0.945211,0.579219 -1.28802,0.02507 z m 20.38179,0.152648 c -0.551538,-0.55094 -0.288222,-0.994564 0.590349,-0.994564 0.492187,0 0.807199,0.221452 0.713688,0.501681 -0.206013,0.617382 -0.912203,0.884293 -1.304037,0.492883 z m 19.877725,0 c -0.551538,-0.55094 -0.288221,-0.994564 0.590338,-0.994564 0.49218,0 0.80721,0.221452 0.7137,0.501681 -0.20601,0.617382 -0.9122,0.884293 -1.304038,0.492883 z m 20.203968,-0.177733 c -0.38926,-0.629118 0.062,-0.971172 0.8718,-0.660765 0.3737,0.143228 0.56099,0.451895 0.41623,0.685897 -0.34283,0.554087 -0.93685,0.542494 -1.28803,-0.02507 z m 19.97441,0.177733 c -0.55155,-0.55094 -0.28823,-0.994564 0.59034,-0.994564 0.49219,0 0.8072,0.221452 0.71369,0.501681 -0.20602,0.617382 -0.9122,0.884293 -1.30403,0.492883 z m 19.87771,0 c -0.55153,-0.55094 -0.28822,-0.994564 0.59035,-0.994564 0.49217,0 0.8072,0.221452 0.71369,0.501681 -0.20601,0.617382 -0.91221,0.884293 -1.30404,0.492883 z m 20.30065,0 c -0.55154,-0.55094 -0.28823,-0.994564 0.59035,-0.994564 0.49217,0 0.80719,0.221452 0.71368,0.501681 -0.206,0.617382 -0.9122,0.884293 -1.30403,0.492883 z M 0.00965221,97.321818 c 0,-0.232359 0.1903146,-0.422467 0.42292489,-0.422467 0.23261029,0 0.42292493,0.190108 0.42292493,0.422467 0,0.232358 -0.19031464,0.422482 -0.42292493,0.422482 -0.23261029,0 -0.42292489,-0.190124 -0.42292489,-0.422482 z m 199.62304779,0 c 0,-0.232359 0.19032,-0.422467 0.42293,-0.422467 0.23261,0 0.42293,0.190108 0.42293,0.422467 0,0.232358 -0.19032,0.422482 -0.42293,0.422482 -0.23261,0 -0.42293,-0.190124 -0.42293,-0.422482 z"
       id="path826"
       inkscape:connector-curvature="0" />
  </g>
</svg>
