<?xml version="1.0" encoding="utf-8"?>
<!-- Generator: Adobe Illustrator 24.2.3, SVG Export Plug-In . SVG Version: 6.00 Build 0)  -->
<svg version="1.1" id="Layer_1" xmlns="http://www.w3.org/2000/svg" xmlns:xlink="http://www.w3.org/1999/xlink" x="0px" y="0px"
	 viewBox="0 0 512 512" style="enable-background:new 0 0 512 512;" xml:space="preserve">
<style type="text/css">
	.st0{fill:#7F9CF5;}
	.st1{fill:#F3FBFF;}
</style>
<path class="st0" d="M512,256C512,114.6,397.4,0,256,0S0,114.6,0,256s114.6,256,256,256S512,397.4,512,256"/>
<path class="st1" d="M256,79.4c-97.4,0-176.6,79.2-176.6,176.6S158.7,432.6,256,432.6S432.6,353.4,432.6,256S353.4,79.4,256,79.4
	 M256,450.2c-107.1,0-194.2-87.1-194.2-194.2S148.9,61.8,256,61.8S450.2,148.9,450.2,256S363.1,450.2,256,450.2"/>
<path class="st1" d="M2.5,291.3h71.6c-2.2-11.4-3.5-23.2-3.5-35.3s1.2-23.9,3.5-35.3H2.5C0.9,232.2,0,244,0,256S0.9,279.8,2.5,291.3
	"/>
<path class="st1" d="M53.7,99.2l50.6,50.6c13.6-19.4,30.9-36.1,50.8-49.1l-50.8-50.8C85.2,63.9,68.2,80.5,53.7,99.2"/>
<path class="st1" d="M256,0c-12,0-23.8,0.9-35.3,2.5v71.6c11.4-2.2,23.2-3.5,35.3-3.5s23.9,1.2,35.3,3.5V2.5C279.8,0.9,268,0,256,0"
	/>
<path class="st1" d="M409.3,51l-50.7,50.7c19.8,13.2,36.8,30,50.3,49.6l50.6-50.6C445.1,81.9,428.2,65.1,409.3,51"/>
<path class="st1" d="M441.4,256c0,12.1-1.2,23.9-3.5,35.3h71.6c1.6-11.5,2.5-23.3,2.5-35.3s-0.9-23.8-2.5-35.3h-71.6
	C440.1,232.1,441.4,243.9,441.4,256"/>
<path class="st1" d="M411.3,356.9c-13,19.9-29.7,37.1-49.1,50.8l50.6,50.6c18.7-14.5,35.3-31.5,49.3-50.5L411.3,356.9z"/>
<path class="st1" d="M220.7,437.9v71.6c11.5,1.6,23.3,2.5,35.3,2.5s23.8-0.9,35.3-2.5v-71.6c-11.4,2.2-23.2,3.5-35.3,3.5
	C243.9,441.4,232.1,440.1,220.7,437.9"/>
<path class="st1" d="M101.7,358.5L51,409.3c14.2,18.9,30.9,35.8,49.7,50.2l50.6-50.6C131.7,395.4,114.9,378.3,101.7,358.5"/>
<g>
	<g>
		<path class="st1" d="M142.9,309.3c51.1-45.8,80-73.4,80-98.3c0-17.5-10.6-29.9-32.3-29.9c-14.2,0-26.5,8.1-36.2,18.3l-12.7-11.2
			c14.2-14.1,29.5-23.3,51.6-23.3c31.4,0,51,17.9,51,45c0,28.7-29.3,57.3-69.4,95.2c9.2-0.7,19.8-1.3,28.6-1.3h49.2v17H142.9V309.3z
			"/>
		<path class="st1" d="M271.4,302.9l10.8-12.9c10.1,9.1,22.9,17.4,42.9,17.4c20.7,0,37.2-13.5,37.2-34.8c0-21.1-14.3-33.6-36.1-33.6
			c-11.8,0-19.1,3.3-29.2,9.3l-11.6-6.7L291,168H376v17h-65.8l-4.5,45.4c7.9-3.9,15.6-6.3,26.1-6.3c29,0,52.7,14.9,52.7,47.9
			c0,33.2-27.7,51.9-57.2,51.9C299.9,323.9,283.2,313.6,271.4,302.9z"/>
	</g>
</g>
</svg>
